<?xml version="1.0" encoding="UTF-8"?>
<svg width="144px" height="44px" viewBox="0 0 144 44" version="1.1" xmlns="http://www.w3.org/2000/svg" xmlns:xlink="http://www.w3.org/1999/xlink">
    <!-- Generator: Sketch 60.1 (88133) - https://sketch.com -->
    <title>编组</title>
    <desc>Created with Sketch.</desc>
    <g id="首页" stroke="none" stroke-width="1" fill="none" fill-rule="evenodd">
        <g id="详情页备份" transform="translate(-360.000000, -93.000000)" fill-rule="nonzero">
            <g id="封面" transform="translate(0.000000, 50.000000)">
                <g id="编组" transform="translate(360.000000, 43.000000)">
                    <g id="sket" transform="translate(0.000000, 4.000000)">
                        <polygon id="路径" fill="#FDAC00" points="20.0057606 36.0108811 31.6105609 13.0251524 8.40099225 13.0272964"></polygon>
                        <path d="M20.0057606,36.0108811 L8.40099225,13.0272964 L0,13.0251524 L20.0057606,36.0108811 Z M20.0057606,36.0108811 L31.5393609,13.0272964 L39.9403212,13.0251524 L20.0057606,36.0108811 Z" id="形状" fill="#F57400"></path>
                        <path d="M8.47532825,1.77636805 L8.47532825,13.0272964 L0,13.0272964 L8.47532825,1.77636805 Z M31.4681609,1.77636805 L31.4681609,13.0272964 L39.9435212,13.0272964 L31.4681609,1.77636805 Z" id="形状" fill="#FC9F02"></path>
                        <polygon id="路径" fill="#FEE99C" points="20.0057606 0.067696002 31.6105609 13.0251684 8.40099225 13.0251684"></polygon>
                        <polygon id="路径" fill="#FDCE16" points="20.0057606 0.067696002 8.40099225 1.77636805 8.40099225 13.0273124"></polygon>
                        <polygon id="路径" fill="#FDCE16" points="19.9345606 0.067696002 31.5393609 1.77636805 31.5393609 13.0273124"></polygon>
                    </g>
                    <g id="fig" transform="translate(115.000000, 0.000000)">
                        <path d="M14.4000004,21.6000006 C14.4000004,19.6904006 15.1585765,17.8590405 16.5088005,16.5088005 C17.8590405,15.1585765 19.6904006,14.4000004 21.6000006,14.4000004 C23.5096007,14.4000004 25.3409608,15.1585765 26.6912008,16.5088005 C28.0414408,17.8590405 28.8000009,19.6904006 28.8000009,21.6000006 C28.8000009,23.5096007 28.0414408,25.3409608 26.6912008,26.6912008 C25.3409608,28.0414408 23.5096007,28.8000009 21.6000006,28.8000009 C19.6904006,28.8000009 17.8590405,28.0414408 16.5088005,26.6912008 C15.1585765,25.3409608 14.4000004,23.5096007 14.4000004,21.6000006 Z" id="路径" fill="#1ABCFE"></path>
                        <path d="M0,36.0000011 C0,34.090401 0.758569623,32.259041 2.10883206,30.9088009 C3.4590881,29.5585609 5.29044816,28.8000009 7.20000021,28.8000009 L14.4000004,28.8000009 L14.4000004,36.0000011 C14.4000004,37.9096011 13.6414244,39.7409612 12.2911684,41.0912012 C10.9409123,42.4414413 9.10955227,43.2000013 7.20000021,43.2000013 C5.29044816,43.2000013 3.4590881,42.4414413 2.10883206,41.0912012 C0.758569623,39.7409612 0,37.9096011 0,36.0000011 L0,36.0000011 Z" id="路径" fill="#0ACF83"></path>
                        <path d="M14.4000004,0 L14.4000004,14.4000004 L21.6000006,14.4000004 C23.5096007,14.4000004 25.3409608,13.6414244 26.6912008,12.2911684 C28.0414408,10.9409123 28.8000009,9.10955227 28.8000009,7.20000021 C28.8000009,5.29044816 28.0414408,3.4590881 26.6912008,2.10883206 C25.3409608,0.758569623 23.5096007,0 21.6000006,0 L14.4000004,0 Z" id="路径" fill="#FF7262"></path>
                        <path d="M0,7.20000021 C0,9.10955227 0.758569623,10.9409123 2.10883206,12.2911684 C3.4590881,13.6414244 5.29044816,14.4000004 7.20000021,14.4000004 L14.4000004,14.4000004 L14.4000004,0 L7.20000021,0 C5.29044816,0 3.4590881,0.758569623 2.10883206,2.10883206 C0.758569623,3.4590881 0,5.29044816 0,7.20000021 L0,7.20000021 Z" id="路径" fill="#F24E1E"></path>
                        <path d="M0,21.6000006 C0,23.5096007 0.758569623,25.3409608 2.10883206,26.6912008 C3.4590881,28.0414408 5.29044816,28.8000009 7.20000021,28.8000009 L14.4000004,28.8000009 L14.4000004,14.4000004 L7.20000021,14.4000004 C5.29044816,14.4000004 3.4590881,15.1585765 2.10883206,16.5088005 C0.758569623,17.8590405 0,19.6904006 0,21.6000006 L0,21.6000006 Z" id="路径" fill="#A259FF"></path>
                    </g>
                    <g id="箭头" transform="translate(65.000000, 14.000000)" fill="#FFFFFF" opacity="0.287365141">
                        <path d="M23.73904,9.88704 L16.03504,17.5908 C15.54496,18.08088 14.75056,18.08088 14.26072,17.5908 C13.77088,17.10096 13.77088,16.30632 14.26072,15.81648 L21.07744,9 L14.26096,2.18352 C13.77112,1.69344 13.77112,0.89904 14.26096,0.4092 C14.7508,-0.08088 15.5452,-0.08088 16.03528,0.4092 L23.73928,8.11296 C23.98408,8.358 24.10648,8.67888 24.10648,9 C24.10648,9.32112 23.98384,9.64224 23.73904,9.88704 Z" id="路径"></path>
                        <path d="M9.8457,9.88704 L2.1417,17.5908 C1.65162,18.08088 0.85722,18.08088 0.36738,17.5908 C-0.12246,17.10096 -0.12246,16.30632 0.36738,15.81648 L7.1841,9 L0.36762,2.18352 C-0.12222,1.69344 -0.12222,0.89904 0.36762,0.4092 C0.85746,-0.08088 1.65186,-0.08088 2.14194,0.4092 L9.84594,8.11296 C10.09074,8.358 10.21314,8.67888 10.21314,9 C10.21314,9.32112 10.0905,9.64224 9.8457,9.88704 Z" id="路径备份"></path>
                    </g>
                </g>
            </g>
        </g>
    </g>
</svg>