<?xml version="1.0" encoding="UTF-8"?>
<svg width="23px" height="12px" viewBox="0 0 23 12" version="1.1" xmlns="http://www.w3.org/2000/svg" xmlns:xlink="http://www.w3.org/1999/xlink">
    <!-- Generator: Sketch 60.1 (88133) - https://sketch.com -->
    <title>Ae 2</title>
    <desc>Created with Sketch.</desc>
    <g id="首页" stroke="none" stroke-width="1" fill="none" fill-rule="evenodd">
        <g transform="translate(-1495.000000, -435.000000)" fill="#333333" fill-rule="nonzero" id="banner">
            <g transform="translate(0.000000, 50.000000)">
                <g id="Ae-2" transform="translate(1495.000000, 385.000000)">
                    <path d="M3.60351563,11.5820312 C4.07877604,11.5820312 4.38639323,11.5315755 4.52636719,11.4306641 C4.66634115,11.3297526 4.73632812,11.1458333 4.73632812,10.8789062 C4.73632812,10.6315104 4.65820312,10.4573568 4.50195312,10.3564453 C4.34570312,10.2555339 4.05273438,10.2050781 3.62304687,10.2050781 L3.62304687,10.2050781 L2.67578125,10.2050781 L3.515625,7.88085938 L8.4765625,7.88085938 L9.42382812,10.2050781 L8.515625,10.2050781 C8.09244792,10.2050781 7.80436198,10.2555339 7.65136719,10.3564453 C7.4983724,10.4573568 7.421875,10.6315104 7.421875,10.8789062 C7.421875,11.1458333 7.49186198,11.3297526 7.63183594,11.4306641 C7.7718099,11.5315755 8.08919271,11.5820312 8.58398438,11.5820312 L8.58398438,11.5820312 L11.2402344,11.5820312 C11.578776,11.5820312 11.8098958,11.5315755 11.9335938,11.4306641 C12.0572917,11.3297526 12.1191406,11.1458333 12.1191406,10.8789062 C12.1191406,10.625 12.0540365,10.4492188 11.9238281,10.3515625 C11.7936198,10.2539062 11.5527344,10.2050781 11.2011719,10.2050781 L11.2011719,10.2050781 L11.0351562,10.2050781 L7.21679688,0.6640625 C7.11263021,0.41015625 6.99707031,0.236002604 6.87011719,0.141601562 C6.74316406,0.0472005208 6.50065104,0 6.14257812,0 L6.14257812,0 L3.359375,0 C2.734375,0 2.35188802,0.0504557292 2.21191406,0.151367188 C2.0719401,0.252278646 2.00195312,0.436197917 2.00195312,0.703125 C2.00195312,0.95703125 2.08170573,1.13769531 2.24121094,1.24511719 C2.40071615,1.35253906 2.67903646,1.40625 3.07617188,1.40625 L3.07617188,1.40625 L4.50195312,1.40625 L1.18164062,10.2050781 L0.99609375,10.2050781 C0.60546875,10.2050781 0.341796875,10.2539062 0.205078125,10.3515625 C0.068359375,10.4492188 0,10.625 0,10.8789062 C0,11.1458333 0.068359375,11.3297526 0.205078125,11.4306641 C0.341796875,11.5315755 0.618489583,11.5820312 1.03515625,11.5820312 L1.03515625,11.5820312 L3.60351563,11.5820312 Z M7.99804688,6.58203125 L4.00390625,6.58203125 L5.8984375,1.40625 L7.99804688,6.58203125 Z M17.9199219,11.8261719 C18.6035156,11.8261719 19.2919922,11.7415365 19.9853516,11.5722656 C20.6787109,11.4029948 21.3509115,11.1588542 22.0019531,10.8398438 C22.3014323,10.6901042 22.5195312,10.5371094 22.65625,10.3808594 C22.7929688,10.2246094 22.8613281,10.0520833 22.8613281,9.86328125 C22.8613281,9.68098958 22.796224,9.52799479 22.6660156,9.40429688 C22.5358073,9.28059896 22.3730469,9.21875 22.1777344,9.21875 C21.9889323,9.21875 21.4453125,9.42220052 20.546875,9.82910156 C19.6484375,10.2360026 18.8183594,10.4394531 18.0566406,10.4394531 C17.047526,10.4394531 16.2516276,10.1839193 15.6689453,9.67285156 C15.086263,9.16178385 14.7688802,8.4375 14.7167969,7.5 L14.7167969,7.5 L21.4257812,7.5 C22.1028646,7.5 22.5179036,7.43815104 22.6708984,7.31445312 C22.8238932,7.19075521 22.9003906,6.94661458 22.9003906,6.58203125 C22.9003906,5.39713542 22.4479167,4.38802083 21.5429688,3.5546875 C20.6380208,2.72135417 19.4986979,2.3046875 18.125,2.3046875 C16.6080729,2.3046875 15.3776042,2.75065104 14.4335938,3.64257812 C13.4895833,4.53450521 13.0175781,5.69986979 13.0175781,7.13867188 C13.0175781,8.55143229 13.4635417,9.6858724 14.3554688,10.5419922 C15.2473958,11.398112 16.4355469,11.8261719 17.9199219,11.8261719 Z M21.1230469,6.22070312 L14.765625,6.22070312 C14.9544271,5.41341146 15.3450521,4.78190104 15.9375,4.32617188 C16.5299479,3.87044271 17.2591146,3.64257812 18.125,3.64257812 C18.9257812,3.64257812 19.601237,3.87858073 20.1513672,4.35058594 C20.7014974,4.82259115 21.0253906,5.44596354 21.1230469,6.22070312 L21.1230469,6.22070312 Z" id="Ae"></path>
                </g>
            </g>
        </g>
    </g>
</svg>