<?xml version="1.0" encoding="UTF-8"?>
<svg width="34px" height="13px" viewBox="0 0 34 13" version="1.1" xmlns="http://www.w3.org/2000/svg" xmlns:xlink="http://www.w3.org/1999/xlink">
    <!-- Generator: Sketch 60.1 (88133) - https://sketch.com -->
    <title>CSS 2</title>
    <desc>Created with Sketch.</desc>
    <g id="首页" stroke="none" stroke-width="1" fill="none" fill-rule="evenodd">
        <g transform="translate(-1432.000000, -124.000000)" fill="#333333" fill-rule="nonzero" id="banner">
            <g transform="translate(0.000000, 50.000000)">
                <g id="CSS-2" transform="translate(1432.000000, 74.000000)">
                    <path d="M5.55664062,12.2070312 C6.16861979,12.2070312 6.75130208,12.1223958 7.3046875,11.953125 C7.85807292,11.7838542 8.40820312,11.5201823 8.95507812,11.1621094 C9.37174479,10.9016927 9.65657552,10.6819661 9.80957031,10.5029297 C9.9625651,10.3238932 10.0390625,10.1367188 10.0390625,9.94140625 C10.0390625,9.74609375 9.96907552,9.58170573 9.82910156,9.44824219 C9.6891276,9.31477865 9.51822917,9.24804688 9.31640625,9.24804688 C9.18619792,9.24804688 8.96809896,9.35709635 8.66210938,9.57519531 C8.35611979,9.79329427 8.11523438,9.94791667 7.93945312,10.0390625 C7.56184896,10.2539062 7.17773438,10.4150391 6.78710938,10.5224609 C6.39648438,10.6298828 6.01236979,10.6835938 5.63476562,10.6835938 C4.47591146,10.6835938 3.54329427,10.2620443 2.83691406,9.41894531 C2.13053385,8.57584635 1.77734375,7.44466146 1.77734375,6.02539062 C1.77734375,4.60611979 2.12565104,3.4749349 2.82226562,2.63183594 C3.51888021,1.78873698 4.44335938,1.3671875 5.59570312,1.3671875 C6.22721354,1.3671875 6.77734375,1.5218099 7.24609375,1.83105469 C7.71484375,2.14029948 8.01106771,2.5390625 8.13476562,3.02734375 C8.16080729,3.125 8.19661458,3.26497396 8.2421875,3.44726563 C8.37239583,4.05924479 8.65234375,4.36523438 9.08203125,4.36523438 C9.34895833,4.36523438 9.53450521,4.31152344 9.63867188,4.20410156 C9.74283854,4.09667969 9.79492188,3.88997396 9.79492188,3.58398438 L9.79476046,3.59580804 L9.79476046,3.59580804 L9.79428125,3.59482812 C9.79255613,3.56295622 9.78738916,3.36752647 9.77878035,3.00853887 L9.77539062,2.86621094 C9.76236979,2.31608073 9.75585938,1.72200521 9.75585938,1.08398438 C9.75585938,0.719401042 9.70703125,0.478515625 9.609375,0.361328125 C9.51171875,0.244140625 9.34244792,0.185546875 9.1015625,0.185546875 C8.88020833,0.185546875 8.7109375,0.221354167 8.59375,0.29296875 C8.4765625,0.364583333 8.38541667,0.48828125 8.3203125,0.6640625 C7.82552083,0.455729167 7.35514323,0.299479167 6.90917969,0.1953125 C6.46321615,0.0911458333 6.02539062,0.0390625 5.59570312,0.0390625 C3.98763021,0.0390625 2.65299479,0.618489583 1.59179688,1.77734375 C0.530598958,2.93619792 0,4.39127604 0,6.14257812 C0,7.91341146 0.524088542,9.36686198 1.57226562,10.5029297 C2.62044271,11.6389974 3.94856771,12.2070312 5.55664062,12.2070312 Z M13.6035156,12.3632812 C13.8574219,12.3632812 14.0429688,12.3063151 14.1601562,12.1923828 C14.2773438,12.0784505 14.3522135,11.875 14.3847656,11.5820312 C14.905599,11.8164062 15.3971354,11.9889323 15.859375,12.0996094 C16.3216146,12.2102865 16.7871094,12.265625 17.2558594,12.265625 C18.6165365,12.265625 19.703776,11.9352214 20.5175781,11.2744141 C21.3313802,10.6136068 21.7382812,9.73632812 21.7382812,8.64257812 C21.7382812,7.71809896 21.4518229,6.98404948 20.8789062,6.44042969 C20.3059896,5.8968099 19.453125,5.55013021 18.3203125,5.40039062 L18.3203125,5.40039062 L16.7578125,5.20507812 C16.0026042,5.10091146 15.4410807,4.90559896 15.0732422,4.61914062 C14.7054036,4.33268229 14.5214844,3.94205729 14.5214844,3.44726562 C14.5214844,2.81575521 14.7672526,2.3046875 15.2587891,1.9140625 C15.7503255,1.5234375 16.389974,1.328125 17.1777344,1.328125 C17.6920573,1.328125 18.1510417,1.41601562 18.5546875,1.59179687 C18.9583333,1.76757812 19.2675781,2.01822917 19.4824219,2.34375 C19.5735677,2.48046875 19.6647135,2.68554688 19.7558594,2.95898438 C19.9446615,3.44075521 20.2115885,3.68164062 20.5566406,3.68164062 C20.7910156,3.68164062 20.9733073,3.61816406 21.1035156,3.49121094 C21.233724,3.36425781 21.2988281,3.18684896 21.2988281,2.95898438 L21.2988281,2.95898438 L21.2988281,2.86132812 L21.1621094,0.8203125 C21.1360677,0.501302083 21.0677083,0.299479167 20.9570312,0.21484375 C20.8463542,0.130208333 20.6477865,0.087890625 20.3613281,0.087890625 C20.139974,0.087890625 19.983724,0.123697917 19.8925781,0.1953125 C19.8014323,0.266927083 19.749349,0.397135417 19.7363281,0.5859375 C19.235026,0.384114583 18.7858073,0.236002604 18.3886719,0.141601562 C17.9915365,0.0472005208 17.6139323,0 17.2558594,0 C16.0253906,0 14.9983724,0.338541667 14.1748047,1.015625 C13.351237,1.69270833 12.9394531,2.52929688 12.9394531,3.52539063 C12.9394531,4.46940104 13.2486979,5.20182292 13.8671875,5.72265625 C14.4856771,6.24348958 15.46875,6.59830729 16.8164062,6.78710938 L16.8164062,6.78710938 L18.2617188,6.98242188 C18.8802083,7.07356771 19.3505859,7.27539062 19.6728516,7.58789062 C19.9951172,7.90039062 20.15625,8.31380208 20.15625,8.828125 C20.15625,9.44661458 19.8942057,9.95442708 19.3701172,10.3515625 C18.8460286,10.7486979 18.1640625,10.9472656 17.3242188,10.9472656 C16.640625,10.9472656 16.0530599,10.8235677 15.5615234,10.5761719 C15.069987,10.328776 14.7102865,9.97721354 14.4824219,9.52148438 C14.4108073,9.37825521 14.3359375,9.16666667 14.2578125,8.88671875 C14.0885417,8.32682292 13.8085938,8.046875 13.4179688,8.046875 C13.1380208,8.046875 12.9378255,8.11197917 12.8173828,8.2421875 C12.6969401,8.37239583 12.6367188,8.59375 12.6367188,8.90625 L12.6367188,8.90625 L12.6367188,9.08203125 L12.7636719,11.3476562 C12.7832031,11.7057292 12.8597005,11.9645182 12.9931641,12.1240234 C13.1266276,12.2835286 13.3300781,12.3632812 13.6035156,12.3632812 Z M25.6054688,12.3632812 C25.859375,12.3632812 26.0449219,12.3063151 26.1621094,12.1923828 C26.2792969,12.0784505 26.3541667,11.875 26.3867188,11.5820312 C26.9075521,11.8164062 27.3990885,11.9889323 27.8613281,12.0996094 C28.3235677,12.2102865 28.7890625,12.265625 29.2578125,12.265625 C30.6184896,12.265625 31.7057292,11.9352214 32.5195312,11.2744141 C33.3333333,10.6136068 33.7402344,9.73632812 33.7402344,8.64257812 C33.7402344,7.71809896 33.453776,6.98404948 32.8808594,6.44042969 C32.3079427,5.8968099 31.4550781,5.55013021 30.3222656,5.40039062 L30.3222656,5.40039062 L28.7597656,5.20507812 C28.0045573,5.10091146 27.4430339,4.90559896 27.0751953,4.61914062 C26.7073568,4.33268229 26.5234375,3.94205729 26.5234375,3.44726562 C26.5234375,2.81575521 26.7692057,2.3046875 27.2607422,1.9140625 C27.7522786,1.5234375 28.3919271,1.328125 29.1796875,1.328125 C29.6940104,1.328125 30.1529948,1.41601562 30.5566406,1.59179687 C30.9602865,1.76757812 31.2695312,2.01822917 31.484375,2.34375 C31.5755208,2.48046875 31.6666667,2.68554688 31.7578125,2.95898438 C31.9466146,3.44075521 32.2135417,3.68164062 32.5585938,3.68164062 C32.7929688,3.68164062 32.9752604,3.61816406 33.1054688,3.49121094 C33.2356771,3.36425781 33.3007812,3.18684896 33.3007812,2.95898438 L33.3007812,2.95898438 L33.3007812,2.86132812 L33.1640625,0.8203125 C33.1380208,0.501302083 33.0696615,0.299479167 32.9589844,0.21484375 C32.8483073,0.130208333 32.6497396,0.087890625 32.3632812,0.087890625 C32.1419271,0.087890625 31.9856771,0.123697917 31.8945312,0.1953125 C31.8033854,0.266927083 31.7513021,0.397135417 31.7382812,0.5859375 C31.2369792,0.384114583 30.7877604,0.236002604 30.390625,0.141601562 C29.9934896,0.0472005208 29.6158854,0 29.2578125,0 C28.0273438,0 27.0003255,0.338541667 26.1767578,1.015625 C25.3531901,1.69270833 24.9414062,2.52929688 24.9414062,3.52539063 C24.9414062,4.46940104 25.250651,5.20182292 25.8691406,5.72265625 C26.4876302,6.24348958 27.4707031,6.59830729 28.8183594,6.78710938 L28.8183594,6.78710938 L30.2636719,6.98242188 C30.8821615,7.07356771 31.3525391,7.27539062 31.6748047,7.58789062 C31.9970703,7.90039062 32.1582031,8.31380208 32.1582031,8.828125 C32.1582031,9.44661458 31.8961589,9.95442708 31.3720703,10.3515625 C30.8479818,10.7486979 30.1660156,10.9472656 29.3261719,10.9472656 C28.6425781,10.9472656 28.055013,10.8235677 27.5634766,10.5761719 C27.0719401,10.328776 26.7122396,9.97721354 26.484375,9.52148438 C26.4127604,9.37825521 26.3378906,9.16666667 26.2597656,8.88671875 C26.0904948,8.32682292 25.8105469,8.046875 25.4199219,8.046875 C25.139974,8.046875 24.9397786,8.11197917 24.8193359,8.2421875 C24.6988932,8.37239583 24.6386719,8.59375 24.6386719,8.90625 L24.6386719,8.90625 L24.6386719,9.08203125 L24.765625,11.3476562 C24.7851562,11.7057292 24.8616536,11.9645182 24.9951172,12.1240234 C25.1285807,12.2835286 25.3320312,12.3632812 25.6054688,12.3632812 Z" id="CSS"></path>
                </g>
            </g>
        </g>
    </g>
</svg>