<?xml version="1.0" encoding="UTF-8"?>
<svg width="60px" height="18px" viewBox="0 0 60 18" version="1.1" xmlns="http://www.w3.org/2000/svg" xmlns:xlink="http://www.w3.org/1999/xlink">
    <!-- Generator: Sketch 60.1 (88133) - https://sketch.com -->
    <title>Figma 2</title>
    <desc>Created with Sketch.</desc>
    <g id="首页" stroke="none" stroke-width="1" fill="none" fill-rule="evenodd">
        <g transform="translate(-1469.000000, -212.000000)" fill="#333333" fill-rule="nonzero" id="banner">
            <g transform="translate(0.000000, 50.000000)">
                <g id="Figma-2" transform="translate(1468.898438, 161.562500)">
                    <path d="M6.49804688,14.4375 C6.71940104,14.4375 6.88867188,14.3772786 7.00585938,14.2568359 C7.12304688,14.1363932 7.18164062,13.9622396 7.18164062,13.734375 C7.18164062,13.5 7.11979167,13.3291016 6.99609375,13.2216797 C6.87239583,13.1142578 6.67382812,13.0605469 6.40039062,13.0605469 L6.40039062,13.0605469 L4.3203125,13.0605469 L4.3203125,8.734375 L6.8984375,8.734375 L6.8984375,9.01757812 C6.8984375,9.49283854 6.94401042,9.81184896 7.03515625,9.97460938 C7.12630208,10.1373698 7.2890625,10.21875 7.5234375,10.21875 C7.74479167,10.21875 7.89941406,10.156901 7.98730469,10.0332031 C8.07519531,9.90950521 8.11914062,9.68489583 8.11914062,9.359375 L8.11914062,9.359375 L8.11914062,6.87890625 C8.11914062,6.60546875 8.0719401,6.40690104 7.97753906,6.28320312 C7.88313802,6.15950521 7.73177083,6.09765625 7.5234375,6.09765625 C7.2890625,6.09765625 7.12630208,6.17903646 7.03515625,6.34179688 C6.94401042,6.50455729 6.8984375,6.82356771 6.8984375,7.29882812 L6.8984375,7.29882812 L6.8984375,7.55273438 L4.3203125,7.55273438 L4.3203125,4.26171875 L9.62304688,4.26171875 L9.62304688,5.65820312 C9.62304688,6.15950521 9.671875,6.48177083 9.76953125,6.625 C9.8671875,6.76822917 10.0527344,6.83984375 10.3261719,6.83984375 C10.547526,6.83984375 10.7151693,6.7828776 10.8291016,6.66894531 C10.9430339,6.55501302 11,6.38411458 11,6.15625 L11,6.15625 L11,3.63671875 C11,3.3828125 10.9430339,3.1891276 10.8291016,3.05566406 C10.7151693,2.92220052 10.547526,2.85546875 10.3261719,2.85546875 L10.3261719,2.85546875 L1.68359375,2.85546875 C1.46223958,2.85546875 1.29296875,2.9156901 1.17578125,3.03613281 C1.05859375,3.15657552 1,3.33072917 1,3.55859375 C1,3.82552083 1.06998698,4.0094401 1.20996094,4.11035156 C1.3499349,4.21126302 1.66731771,4.26171875 2.16210938,4.26171875 L2.16210938,4.26171875 L2.77734375,4.26171875 L2.77734375,13.0605469 L1.83984375,13.0605469 C1.53385417,13.0605469 1.31738281,13.1126302 1.19042969,13.2167969 C1.06347656,13.3209635 1,13.4934896 1,13.734375 C1,13.9622396 1.05859375,14.1363932 1.17578125,14.2568359 C1.29296875,14.3772786 1.46223958,14.4375 1.68359375,14.4375 L1.68359375,14.4375 L6.49804688,14.4375 Z M18.2070312,3.55859375 C18.6302083,3.55859375 18.9020182,3.49186198 19.0224609,3.35839844 C19.1429036,3.2249349 19.203125,2.87825521 19.203125,2.31835938 C19.203125,1.74544271 19.1380208,1.38248698 19.0078125,1.22949219 C18.8776042,1.0764974 18.6106771,1 18.2070312,1 C17.7903646,1 17.5185547,1.09114583 17.3916016,1.2734375 C17.2646484,1.45572917 17.2011719,1.8984375 17.2011719,2.6015625 C17.2011719,2.9921875 17.2646484,3.24934896 17.3916016,3.37304688 C17.5185547,3.49674479 17.7903646,3.55859375 18.2070312,3.55859375 Z M22.0839844,14.4375 C22.389974,14.4375 22.5999349,14.3870443 22.7138672,14.2861328 C22.8277995,14.1852214 22.8847656,14.0013021 22.8847656,13.734375 C22.8847656,13.5 22.8245443,13.3291016 22.7041016,13.2216797 C22.5836589,13.1142578 22.3964844,13.0605469 22.1425781,13.0605469 L22.1425781,13.0605469 L19.0078125,13.0605469 L19.0078125,5.81445312 C19.0078125,5.69075521 18.9573568,5.59309896 18.8564453,5.52148438 C18.7555339,5.44986979 18.6171875,5.4140625 18.4414062,5.4140625 L18.4414062,5.4140625 L15.5800781,5.4140625 C15.3196615,5.4140625 15.124349,5.47102865 14.9941406,5.58496094 C14.8639323,5.69889323 14.7988281,5.86979167 14.7988281,6.09765625 C14.7988281,6.32552083 14.8688151,6.49967448 15.0087891,6.62011719 C15.148763,6.7405599 15.3522135,6.80078125 15.6191406,6.80078125 L15.6191406,6.80078125 L17.5234375,6.80078125 L17.5234375,13.0605469 L14.5449219,13.0605469 C14.2714844,13.0605469 14.0664062,13.1158854 13.9296875,13.2265625 C13.7929688,13.3372396 13.7246094,13.5065104 13.7246094,13.734375 C13.7246094,13.96875 13.7897135,14.1445312 13.9199219,14.2617188 C14.0501302,14.3789062 14.2454427,14.4375 14.5058594,14.4375 L14.5058594,14.4375 L22.0839844,14.4375 Z M29.6035156,18.3339844 C30.4954427,18.3339844 31.2701823,18.2086589 31.9277344,17.9580078 C32.5852865,17.7073568 33.0963542,17.3411458 33.4609375,16.859375 C33.6822917,16.5729167 33.8385417,16.2392578 33.9296875,15.8583984 C34.0208333,15.4775391 34.0664062,14.8313802 34.0664062,13.9199219 L34.0664062,13.9199219 L34.0664062,6.80078125 L34.2421875,6.80078125 C34.6914062,6.80078125 34.9973958,6.74869792 35.1601562,6.64453125 C35.3229167,6.54036458 35.4042969,6.35807292 35.4042969,6.09765625 C35.4042969,5.86979167 35.3391927,5.69889323 35.2089844,5.58496094 C35.078776,5.47102865 34.8834635,5.4140625 34.6230469,5.4140625 L34.6230469,5.4140625 L33.1484375,5.4140625 C32.9596354,5.4140625 32.8212891,5.44661458 32.7333984,5.51171875 C32.6455078,5.57682292 32.6015625,5.67773438 32.6015625,5.81445312 L32.6015625,5.81445312 L32.6015625,6.51757812 C32.1132812,6.13997396 31.6298828,5.85839844 31.1513672,5.67285156 C30.6728516,5.48730469 30.1829427,5.39453125 29.6816406,5.39453125 C28.4707031,5.39453125 27.4550781,5.8063151 26.6347656,6.62988281 C25.8144531,7.45345052 25.4042969,8.49023438 25.4042969,9.74023438 C25.4042969,10.983724 25.8030599,12.0107422 26.6005859,12.8212891 C27.398112,13.6318359 28.405599,14.0371094 29.6230469,14.0371094 C30.2480469,14.0371094 30.8014323,13.9296875 31.2832031,13.7148438 C31.764974,13.5 32.2044271,13.1614583 32.6015625,12.6992188 L32.6015625,12.6992188 L32.6015625,13.8808594 C32.6015625,14.9550781 32.3997396,15.7135417 31.9960938,16.15625 C31.5924479,16.5989583 30.9088542,16.8203125 29.9453125,16.8203125 C29.7565104,16.8203125 29.4798177,16.7958984 29.1152344,16.7470703 C28.750651,16.6982422 28.4804688,16.6738281 28.3046875,16.6738281 C28.0768229,16.6738281 27.8798828,16.7503255 27.7138672,16.9033203 C27.5478516,17.0563151 27.4648438,17.233724 27.4648438,17.4355469 C27.4648438,17.7480469 27.6357422,17.9759115 27.9775391,18.1191406 C28.3193359,18.2623698 28.8613281,18.3339844 29.6035156,18.3339844 Z M29.828125,12.5332031 C28.9752604,12.5332031 28.2786458,12.2679036 27.7382812,11.7373047 C27.1979167,11.2067057 26.9277344,10.5279948 26.9277344,9.70117188 C26.9277344,8.86132812 27.1979167,8.17773438 27.7382812,7.65039062 C28.2786458,7.12304688 28.9752604,6.859375 29.828125,6.859375 C30.6744792,6.859375 31.3694661,7.12630208 31.9130859,7.66015625 C32.4567057,8.19401042 32.7285156,8.87434896 32.7285156,9.70117188 C32.7285156,10.5279948 32.4567057,11.2067057 31.9130859,11.7373047 C31.3694661,12.2679036 30.6744792,12.5332031 29.828125,12.5332031 Z M39.4667969,14.4375 C39.7792969,14.4375 39.9908854,14.3870443 40.1015625,14.2861328 C40.2122396,14.1852214 40.2675781,14.0013021 40.2675781,13.734375 C40.2675781,13.4804688 40.1992188,13.3046875 40.0625,13.2070312 C39.9257812,13.109375 39.6621094,13.0605469 39.2714844,13.0605469 L39.2714844,13.0605469 L38.9101562,13.0605469 L38.9101562,7.6796875 C39.0859375,7.34114583 39.2958984,7.08561198 39.5400391,6.91308594 C39.7841797,6.7405599 40.0527344,6.65429688 40.3457031,6.65429688 C40.7298177,6.65429688 41.0325521,6.79589844 41.2539062,7.07910156 C41.4752604,7.36230469 41.5859375,7.74804688 41.5859375,8.23632812 L41.5859375,8.23632812 L41.5859375,13.4023438 C41.5859375,13.8320312 41.6363932,14.1119792 41.7373047,14.2421875 C41.8382161,14.3723958 42.0286458,14.4375 42.3085938,14.4375 L42.3085938,14.4375 L43.5488281,14.4375 C43.7766927,14.4375 43.9459635,14.3789062 44.0566406,14.2617188 C44.1673177,14.1445312 44.2226562,13.96875 44.2226562,13.734375 C44.2226562,13.4739583 44.1559245,13.2965495 44.0224609,13.2021484 C43.8889974,13.1077474 43.6236979,13.0605469 43.2265625,13.0605469 L43.2265625,13.0605469 L43.0507812,13.0605469 L43.0507812,8.99804688 C43.0507812,8.26888021 43.1923828,7.69596354 43.4755859,7.27929688 C43.7587891,6.86263021 44.141276,6.65429688 44.6230469,6.65429688 C45.0266927,6.65429688 45.3115234,6.81542969 45.4775391,7.13769531 C45.6435547,7.45996094 45.7265625,8.08007812 45.7265625,8.99804688 L45.7265625,8.99804688 L45.7265625,13.4609375 C45.7265625,13.7994792 45.7884115,14.046875 45.9121094,14.203125 C46.0358073,14.359375 46.2278646,14.4375 46.4882812,14.4375 L46.4882812,14.4375 L47.6699219,14.4375 C47.8977865,14.4375 48.0703125,14.3789062 48.1875,14.2617188 C48.3046875,14.1445312 48.3632812,13.96875 48.3632812,13.734375 C48.3632812,13.4804688 48.2949219,13.3046875 48.1582031,13.2070312 C48.0214844,13.109375 47.7513021,13.0605469 47.3476562,13.0605469 L47.3476562,13.0605469 L47.1914062,13.0605469 L47.1914062,8.63671875 C47.1914062,7.41276042 46.9977214,6.52734375 46.6103516,5.98046875 C46.2229818,5.43359375 45.609375,5.16015625 44.7695312,5.16015625 C44.3072917,5.16015625 43.8971354,5.2578125 43.5390625,5.453125 C43.1809896,5.6484375 42.8652344,5.95117188 42.5917969,6.36132812 C42.4485677,5.95768229 42.2288411,5.65657552 41.9326172,5.45800781 C41.6363932,5.2594401 41.2604167,5.16015625 40.8046875,5.16015625 C40.4205729,5.16015625 40.0755208,5.22851562 39.7695312,5.36523438 C39.4635417,5.50195312 39.1770833,5.71354167 38.9101562,6 C38.8971354,5.75911458 38.8564453,5.60123698 38.7880859,5.52636719 C38.7197266,5.4514974 38.578125,5.4140625 38.3632812,5.4140625 L38.3632812,5.4140625 L36.8691406,5.4140625 C36.608724,5.4140625 36.4134115,5.47102865 36.2832031,5.58496094 C36.1529948,5.69889323 36.0878906,5.86979167 36.0878906,6.09765625 C36.0878906,6.35807292 36.1708984,6.54036458 36.3369141,6.64453125 C36.5029297,6.74869792 36.8138021,6.80078125 37.2695312,6.80078125 L37.2695312,6.80078125 L37.4453125,6.80078125 L37.4453125,13.0605469 L37.25,13.0605469 C36.8072917,13.0605469 36.5094401,13.1077474 36.3564453,13.2021484 C36.2034505,13.2965495 36.1269531,13.4739583 36.1269531,13.734375 C36.1269531,13.9752604 36.1871745,14.1526693 36.3076172,14.2666016 C36.4280599,14.3805339 36.6152344,14.4375 36.8691406,14.4375 L36.8691406,14.4375 L39.4667969,14.4375 Z M52.6699219,14.6816406 C53.3339844,14.6816406 53.9801432,14.5546875 54.6083984,14.3007812 C55.2366536,14.046875 55.8177083,13.6790365 56.3515625,13.1972656 L56.3515625,13.1972656 L56.4296875,13.7929688 C56.46875,14.0013021 56.546875,14.1608073 56.6640625,14.2714844 C56.78125,14.3821615 56.9309896,14.4375 57.1132812,14.4375 L57.1132812,14.4375 L58.6464844,14.4375 C58.906901,14.4375 59.1022135,14.3789062 59.2324219,14.2617188 C59.3626302,14.1445312 59.4277344,13.96875 59.4277344,13.734375 C59.4277344,13.4804688 59.3496094,13.3046875 59.1933594,13.2070312 C59.0371094,13.109375 58.7278646,13.0605469 58.265625,13.0605469 L58.265625,13.0605469 L57.7871094,13.0605469 L57.7871094,8.63671875 C57.7871094,7.49739583 57.4941406,6.63639323 56.9082031,6.05371094 C56.3222656,5.47102865 55.4563802,5.1796875 54.3105469,5.1796875 C53.1907552,5.1796875 52.2711589,5.31315104 51.5517578,5.58007812 C50.8323568,5.84700521 50.4726562,6.17252604 50.4726562,6.55664062 C50.4726562,6.79752604 50.5345052,6.99446615 50.6582031,7.14746094 C50.781901,7.30045573 50.938151,7.37695312 51.1269531,7.37695312 C51.328776,7.37695312 51.7421875,7.24023438 52.3671875,6.96679688 C52.9921875,6.69335938 53.5585938,6.55664062 54.0664062,6.55664062 C54.8216146,6.55664062 55.3782552,6.73567708 55.7363281,7.09375 C56.094401,7.45182292 56.2734375,8.00520833 56.2734375,8.75390625 L56.2734375,8.75390625 L56.2734375,8.82226562 C55.8697917,8.71809896 55.4759115,8.64160156 55.0917969,8.59277344 C54.7076823,8.54394531 54.3268229,8.51953125 53.9492188,8.51953125 C52.5169271,8.51953125 51.4052734,8.80273438 50.6142578,9.36914062 C49.8232422,9.93554688 49.4277344,10.7330729 49.4277344,11.7617188 C49.4277344,12.6276042 49.7255859,13.3307292 50.3212891,13.8710938 C50.9169922,14.4114583 51.6998698,14.6816406 52.6699219,14.6816406 Z M52.9140625,13.1777344 C52.3541667,13.1777344 51.8935547,13.0345052 51.5322266,12.7480469 C51.1708984,12.4615885 50.9902344,12.0970052 50.9902344,11.6542969 C50.9902344,11.0813802 51.2799479,10.625651 51.859375,10.2871094 C52.4388021,9.94856771 53.2298177,9.77929688 54.2324219,9.77929688 C54.5644531,9.77929688 54.898112,9.80696615 55.2333984,9.86230469 C55.5686849,9.91764323 55.9153646,10.0039062 56.2734375,10.1210938 L56.2734375,10.1210938 L56.2734375,11.1757812 C56.2734375,11.6445312 55.9202474,12.0953776 55.2138672,12.5283203 C54.507487,12.961263 53.7408854,13.1777344 52.9140625,13.1777344 Z" id="Figma"></path>
                </g>
            </g>
        </g>
    </g>
</svg>