<?xml version="1.0" encoding="UTF-8"?>
<svg width="47px" height="12px" viewBox="0 0 47 12" version="1.1" xmlns="http://www.w3.org/2000/svg" xmlns:xlink="http://www.w3.org/1999/xlink">
    <!-- Generator: Sketch 60.1 (88133) - https://sketch.com -->
    <title>HTML 2</title>
    <desc>Created with Sketch.</desc>
    <g id="首页" stroke="none" stroke-width="1" fill="none" fill-rule="evenodd">
        <g transform="translate(-1160.000000, -338.000000)" fill="#333333" fill-rule="nonzero" id="banner">
            <g transform="translate(0.000000, 50.000000)">
                <g id="HTML-2" transform="translate(1160.000000, 288.000000)">
                    <path d="M3.30078125,11.5820312 C3.76302083,11.5820312 4.0625,11.5315755 4.19921875,11.4306641 C4.3359375,11.3297526 4.40429688,11.1458333 4.40429688,10.8789062 C4.40429688,10.6380208 4.32617188,10.4654948 4.16992188,10.3613281 C4.01367188,10.2571615 3.74348958,10.2050781 3.359375,10.2050781 L3.359375,10.2050781 L2.70507812,10.2050781 L2.70507812,6.14257812 L7.3828125,6.14257812 L7.3828125,10.2050781 L6.90429688,10.2050781 C6.42903646,10.2050781 6.10677083,10.2539062 5.9375,10.3515625 C5.76822917,10.4492188 5.68359375,10.625 5.68359375,10.8789062 C5.68359375,11.1458333 5.75520833,11.3297526 5.8984375,11.4306641 C6.04166667,11.5315755 6.37695312,11.5820312 6.90429688,11.5820312 L6.90429688,11.5820312 L8.92578125,11.5820312 C9.42057292,11.5820312 9.73632812,11.5315755 9.87304688,11.4306641 C10.0097656,11.3297526 10.078125,11.1458333 10.078125,10.8789062 C10.078125,10.6315104 10.0065104,10.4573568 9.86328125,10.3564453 C9.72005208,10.2555339 9.453125,10.2050781 9.0625,10.2050781 L9.0625,10.2050781 L8.90625,10.2050781 L8.90625,1.40625 L9.140625,1.40625 C9.4921875,1.40625 9.73632812,1.35253906 9.87304688,1.24511719 C10.0097656,1.13769531 10.078125,0.95703125 10.078125,0.703125 C10.078125,0.46875 10.0179036,0.29296875 9.89746094,0.17578125 C9.77701823,0.05859375 9.59960938,0 9.36523438,0 L9.36523438,0 L6.98242188,0 C6.40950521,0 6.04980469,0.0504557292 5.90332031,0.151367188 C5.75683594,0.252278646 5.68359375,0.436197917 5.68359375,0.703125 C5.68359375,0.950520833 5.76334635,1.12955729 5.92285156,1.24023438 C6.08235677,1.35091146 6.34765625,1.40625 6.71875,1.40625 L6.71875,1.40625 L7.3828125,1.40625 L7.3828125,4.8046875 L2.70507812,4.8046875 L2.70507812,1.40625 L3.14453125,1.40625 C3.6328125,1.40625 3.96484375,1.35416667 4.140625,1.25 C4.31640625,1.14583333 4.40429688,0.963541667 4.40429688,0.703125 C4.40429688,0.436197917 4.3343099,0.252278646 4.19433594,0.151367188 C4.05436198,0.0504557292 3.72395833,0 3.203125,0 L3.203125,0 L0.7421875,0 C0.48828125,0 0.301106771,0.0569661458 0.180664062,0.170898438 C0.0602213542,0.284830729 0,0.462239583 0,0.703125 C0,0.963541667 0.0732421875,1.14583333 0.219726562,1.25 C0.366210938,1.35416667 0.634765625,1.40625 1.02539062,1.40625 L1.02539062,1.40625 L1.18164062,1.40625 L1.18164062,10.2050781 L1.00585938,10.2050781 C0.615234375,10.2050781 0.349934896,10.2539062 0.209960938,10.3515625 C0.0699869792,10.4492188 0,10.625 0,10.8789062 C0,11.1132812 0.0602213542,11.2890625 0.180664062,11.40625 C0.301106771,11.5234375 0.481770833,11.5820312 0.72265625,11.5820312 L0.72265625,11.5820312 L3.30078125,11.5820312 Z M19.7851562,11.5820312 C20.0065104,11.5820312 20.1757812,11.5218099 20.2929688,11.4013672 C20.4101562,11.2809245 20.46875,11.1067708 20.46875,10.8789062 C20.46875,10.6445312 20.406901,10.4736328 20.2832031,10.3662109 C20.1595052,10.2587891 19.9609375,10.2050781 19.6875,10.2050781 L19.6875,10.2050781 L17.8027344,10.2050781 L17.8027344,1.40625 L20.6054688,1.40625 L20.703125,3.9453125 C20.7161458,4.43359375 20.7714844,4.74446615 20.8691406,4.87792969 C20.9667969,5.01139323 21.1458333,5.078125 21.40625,5.078125 C21.6536458,5.078125 21.8391927,5.02115885 21.9628906,4.90722656 C22.0865885,4.79329427 22.1484375,4.61914062 22.1484375,4.38476562 C22.1484375,4.39127604 22.1451823,4.34244792 22.1386719,4.23828125 C22.1321615,4.13411458 22.1289062,4.0234375 22.1289062,3.90625 L22.1289062,3.90625 L22.0214844,0.68359375 C22.014974,0.442708333 21.953125,0.268554688 21.8359375,0.161132812 C21.71875,0.0537109375 21.5364583,0 21.2890625,0 L21.2890625,0 L12.8027344,0 C12.5553385,0 12.3730469,0.0537109375 12.2558594,0.161132812 C12.1386719,0.268554688 12.0735677,0.442708333 12.0605469,0.68359375 L12.0605469,0.68359375 L11.9628906,3.90625 C11.9628906,4.01041667 11.9596354,4.11295573 11.953125,4.21386719 C11.9466146,4.31477865 11.9433594,4.36523438 11.9433594,4.36523438 C11.9433594,4.59960938 12.0003255,4.77701823 12.1142578,4.89746094 C12.2281901,5.01790365 12.3990885,5.078125 12.6269531,5.078125 C12.9199219,5.078125 13.116862,5.01139323 13.2177734,4.87792969 C13.3186849,4.74446615 13.375651,4.43359375 13.3886719,3.9453125 L13.3886719,3.9453125 L13.4863281,1.40625 L16.2890625,1.40625 L16.2890625,10.2050781 L14.4628906,10.2050781 C14.156901,10.2050781 13.9404297,10.2571615 13.8134766,10.3613281 C13.6865234,10.4654948 13.6230469,10.6380208 13.6230469,10.8789062 C13.6230469,11.1067708 13.6816406,11.2809245 13.7988281,11.4013672 C13.9160156,11.5218099 14.0852865,11.5820312 14.3066406,11.5820312 L14.3066406,11.5820312 L19.7851562,11.5820312 Z M26.5820312,11.5820312 C26.9661458,11.5820312 27.2265625,11.5299479 27.3632812,11.4257812 C27.5,11.3216146 27.5683594,11.1393229 27.5683594,10.8789062 C27.5683594,10.6380208 27.4902344,10.4654948 27.3339844,10.3613281 C27.1777344,10.2571615 26.9075521,10.2050781 26.5234375,10.2050781 L26.5234375,10.2050781 L25.8691406,10.2050781 L26.0449219,1.80664063 L28.0078125,7.421875 C28.0989583,7.68880208 28.2161458,7.87597656 28.359375,7.98339844 C28.5026042,8.09082031 28.7109375,8.14453125 28.984375,8.14453125 C29.2708333,8.14453125 29.4856771,8.09244792 29.6289062,7.98828125 C29.7721354,7.88411458 29.8925781,7.6953125 29.9902344,7.421875 L29.9902344,7.421875 L31.9238281,1.80664063 L32.1289062,10.2050781 L31.7089844,10.2050781 C31.2467448,10.2050781 30.9342448,10.2539062 30.7714844,10.3515625 C30.608724,10.4492188 30.5273438,10.625 30.5273438,10.8789062 C30.5273438,11.1393229 30.5957031,11.3216146 30.7324219,11.4257812 C30.8691406,11.5299479 31.1263021,11.5820312 31.5039062,11.5820312 L31.5039062,11.5820312 L34.2480469,11.5820312 C34.469401,11.5820312 34.6386719,11.5218099 34.7558594,11.4013672 C34.8730469,11.2809245 34.9316406,11.1067708 34.9316406,10.8789062 C34.9316406,10.6184896 34.860026,10.4410807 34.7167969,10.3466797 C34.5735677,10.2522786 34.2903646,10.2050781 33.8671875,10.2050781 L33.8671875,10.2050781 L33.6425781,10.2050781 L33.3691406,1.31835938 L33.5253906,1.31835938 C33.8834635,1.31835938 34.1292318,1.27115885 34.2626953,1.17675781 C34.3961589,1.08235677 34.4628906,0.911458333 34.4628906,0.6640625 C34.4628906,0.44921875 34.4091797,0.284830729 34.3017578,0.170898438 C34.1943359,0.0569661458 34.0364583,0 33.828125,0 L33.828125,0 L32.2265625,0 C31.9270833,0 31.6975911,0.0520833333 31.5380859,0.15625 C31.3785807,0.260416667 31.2532552,0.4296875 31.1621094,0.6640625 L31.1621094,0.6640625 L29.0625,6.77734375 L26.9238281,0.6640625 C26.8391927,0.4296875 26.7171224,0.260416667 26.5576172,0.15625 C26.398112,0.0520833333 26.1686198,0 25.8691406,0 L25.8691406,0 L24.2675781,0 C24.0592448,0 23.8997396,0.0569661458 23.7890625,0.170898438 C23.6783854,0.284830729 23.6230469,0.44921875 23.6230469,0.6640625 C23.6230469,0.911458333 23.6914062,1.08235677 23.828125,1.17675781 C23.9648438,1.27115885 24.2122396,1.31835938 24.5703125,1.31835938 L24.5703125,1.31835938 L24.7265625,1.31835938 L24.4433594,10.2050781 L24.2285156,10.2050781 C23.8053385,10.2050781 23.5221354,10.2522786 23.3789062,10.3466797 C23.2356771,10.4410807 23.1640625,10.6184896 23.1640625,10.8789062 C23.1640625,11.1132812 23.2210286,11.2890625 23.3349609,11.40625 C23.4488932,11.5234375 23.6197917,11.5820312 23.8476562,11.5820312 L23.8476562,11.5820312 L26.5820312,11.5820312 Z M45.4296875,11.5820312 C45.6510417,11.5820312 45.8235677,11.5185547 45.9472656,11.3916016 C46.0709635,11.2646484 46.1328125,11.0872396 46.1328125,10.859375 L46.1328125,10.859375 L46.1328125,7.2265625 C46.1328125,6.97265625 46.0742188,6.78548177 45.9570312,6.66503906 C45.8398438,6.54459635 45.6640625,6.484375 45.4296875,6.484375 C45.15625,6.484375 44.9707031,6.55598958 44.8730469,6.69921875 C44.7753906,6.84244792 44.7265625,7.15820313 44.7265625,7.64648438 L44.7265625,7.64648438 L44.7265625,10.2050781 L39.53125,10.2050781 L39.53125,1.40625 L41.171875,1.40625 C41.6666667,1.40625 41.9873047,1.35579427 42.1337891,1.25488281 C42.2802734,1.15397135 42.3535156,0.970052083 42.3535156,0.703125 C42.3535156,0.46875 42.2916667,0.29296875 42.1679688,0.17578125 C42.0442708,0.05859375 41.8652344,0 41.6308594,0 L41.6308594,0 L36.3476562,0 C36.09375,0 35.9065755,0.0569661458 35.7861328,0.170898438 C35.6656901,0.284830729 35.6054688,0.462239583 35.6054688,0.703125 C35.6054688,0.970052083 35.6787109,1.15397135 35.8251953,1.25488281 C35.9716797,1.35579427 36.2858073,1.40625 36.7675781,1.40625 L36.7675781,1.40625 L37.9882812,1.40625 L37.9882812,10.2050781 L36.7675781,10.2050781 C36.2727865,10.2050781 35.9554036,10.2522786 35.8154297,10.3466797 C35.6754557,10.4410807 35.6054688,10.6184896 35.6054688,10.8789062 C35.6054688,11.1132812 35.6640625,11.2890625 35.78125,11.40625 C35.8984375,11.5234375 36.0742188,11.5820312 36.3085938,11.5820312 L36.3085938,11.5820312 L45.4296875,11.5820312 Z" id="HTML"></path>
                </g>
            </g>
        </g>
    </g>
</svg>