<?xml version="1.0" encoding="UTF-8"?>
<svg width="22px" height="13px" viewBox="0 0 22 13" version="1.1" xmlns="http://www.w3.org/2000/svg" xmlns:xlink="http://www.w3.org/1999/xlink">
    <!-- Generator: Sketch 60.1 (88133) - https://sketch.com -->
    <title>JS 2</title>
    <desc>Created with Sketch.</desc>
    <g id="首页" stroke="none" stroke-width="1" fill="none" fill-rule="evenodd">
        <g transform="translate(-1185.000000, -435.000000)" fill="#333333" fill-rule="nonzero" id="banner">
            <g transform="translate(0.000000, 50.000000)">
                <g id="JS-2" transform="translate(1185.000000, 385.000000)">
                    <path d="M3.95507812,12.2070312 C5.36132812,12.2070312 6.38020833,11.8766276 7.01171875,11.2158203 C7.64322917,10.555013 7.95898438,9.47916667 7.95898438,7.98828125 L7.95898438,7.98828125 L7.95898438,1.74804688 L9.21875,1.74804688 C9.70052083,1.74804688 10.0130208,1.69759115 10.15625,1.59667969 C10.2994792,1.49576823 10.3710938,1.31184896 10.3710938,1.04492188 C10.3710938,0.810546875 10.3141276,0.634765625 10.2001953,0.517578125 C10.086263,0.400390625 9.91210938,0.341796875 9.67773438,0.341796875 L9.67773438,0.341796875 L3.33984375,0.341796875 C3.0859375,0.341796875 2.90201823,0.398763021 2.78808594,0.512695312 C2.67415365,0.626627604 2.6171875,0.804036458 2.6171875,1.04492188 C2.6171875,1.31184896 2.68880208,1.49576823 2.83203125,1.59667969 C2.97526042,1.69759115 3.29101562,1.74804688 3.77929687,1.74804688 L3.77929687,1.74804688 L6.41601562,1.74804688 L6.41601562,7.74414062 C6.41601562,8.88346354 6.21419271,9.70540365 5.81054688,10.2099609 C5.40690104,10.7145182 4.75585938,10.9667969 3.85742188,10.9667969 C3.25846354,10.9667969 2.74739583,10.8186849 2.32421875,10.5224609 C1.90104167,10.226237 1.61783854,9.82096354 1.47460938,9.30664062 C1.43554688,9.13085938 1.40625,8.95345052 1.38671875,8.77441406 C1.3671875,8.5953776 1.35742188,8.3984375 1.35742188,8.18359375 L1.35742188,8.18359375 L1.35664062,7.95390625 C1.35455729,7.78932292 1.34830729,7.67057292 1.33789062,7.59765625 C1.32486979,7.50651042 1.30533854,7.42838542 1.27929688,7.36328125 C1.22721354,7.24609375 1.14583333,7.15657552 1.03515625,7.09472656 C0.924479167,7.0328776 0.791015625,7.00195312 0.634765625,7.00195312 C0.400390625,7.00195312 0.236002604,7.05891927 0.141601562,7.17285156 C0.0472005208,7.28678385 0,7.57161458 0,8.02734375 L0,8.02734375 L0,10.3222656 C0,10.641276 0.0358072917,10.8610026 0.107421875,10.9814453 C0.179036458,11.101888 0.328776042,11.2239583 0.556640625,11.3476562 C1.10351562,11.640625 1.65364583,11.8570964 2.20703125,11.9970703 C2.76041667,12.1370443 3.34309896,12.2070312 3.95507812,12.2070312 Z M13.3007812,12.3632812 C13.5546875,12.3632812 13.7402344,12.3063151 13.8574219,12.1923828 C13.9746094,12.0784505 14.0494792,11.875 14.0820312,11.5820312 C14.6028646,11.8164062 15.094401,11.9889323 15.5566406,12.0996094 C16.0188802,12.2102865 16.484375,12.265625 16.953125,12.265625 C18.3138021,12.265625 19.4010417,11.9352214 20.2148438,11.2744141 C21.0286458,10.6136068 21.4355469,9.73632812 21.4355469,8.64257812 C21.4355469,7.71809896 21.1490885,6.98404948 20.5761719,6.44042969 C20.0032552,5.8968099 19.1503906,5.55013021 18.0175781,5.40039062 L18.0175781,5.40039062 L16.4550781,5.20507812 C15.6998698,5.10091146 15.1383464,4.90559896 14.7705078,4.61914062 C14.4026693,4.33268229 14.21875,3.94205729 14.21875,3.44726562 C14.21875,2.81575521 14.4645182,2.3046875 14.9560547,1.9140625 C15.4475911,1.5234375 16.0872396,1.328125 16.875,1.328125 C17.3893229,1.328125 17.8483073,1.41601562 18.2519531,1.59179687 C18.655599,1.76757812 18.9648438,2.01822917 19.1796875,2.34375 C19.2708333,2.48046875 19.3619792,2.68554688 19.453125,2.95898438 C19.6419271,3.44075521 19.9088542,3.68164062 20.2539062,3.68164062 C20.4882812,3.68164062 20.6705729,3.61816406 20.8007812,3.49121094 C20.9309896,3.36425781 20.9960938,3.18684896 20.9960938,2.95898438 L20.9960938,2.95898438 L20.9960938,2.86132812 L20.859375,0.8203125 C20.8333333,0.501302083 20.764974,0.299479167 20.6542969,0.21484375 C20.5436198,0.130208333 20.3450521,0.087890625 20.0585938,0.087890625 C19.8372396,0.087890625 19.6809896,0.123697917 19.5898438,0.1953125 C19.4986979,0.266927083 19.4466146,0.397135417 19.4335938,0.5859375 C18.9322917,0.384114583 18.4830729,0.236002604 18.0859375,0.141601562 C17.6888021,0.0472005208 17.3111979,0 16.953125,0 C15.7226562,0 14.695638,0.338541667 13.8720703,1.015625 C13.0485026,1.69270833 12.6367188,2.52929688 12.6367188,3.52539063 C12.6367188,4.46940104 12.9459635,5.20182292 13.5644531,5.72265625 C14.1829427,6.24348958 15.1660156,6.59830729 16.5136719,6.78710938 L16.5136719,6.78710938 L17.9589844,6.98242188 C18.577474,7.07356771 19.0478516,7.27539062 19.3701172,7.58789062 C19.6923828,7.90039062 19.8535156,8.31380208 19.8535156,8.828125 C19.8535156,9.44661458 19.5914714,9.95442708 19.0673828,10.3515625 C18.5432943,10.7486979 17.8613281,10.9472656 17.0214844,10.9472656 C16.3378906,10.9472656 15.7503255,10.8235677 15.2587891,10.5761719 C14.7672526,10.328776 14.4075521,9.97721354 14.1796875,9.52148438 C14.1080729,9.37825521 14.0332031,9.16666667 13.9550781,8.88671875 C13.7858073,8.32682292 13.5058594,8.046875 13.1152344,8.046875 C12.8352865,8.046875 12.6350911,8.11197917 12.5146484,8.2421875 C12.3942057,8.37239583 12.3339844,8.59375 12.3339844,8.90625 L12.3339844,8.90625 L12.3339844,9.08203125 L12.4609375,11.3476562 C12.4804688,11.7057292 12.5569661,11.9645182 12.6904297,12.1240234 C12.8238932,12.2835286 13.0273438,12.3632812 13.3007812,12.3632812 Z" id="JS"></path>
                </g>
            </g>
        </g>
    </g>
</svg>