<?xml version="1.0" encoding="UTF-8"?>
<svg width="22px" height="12px" viewBox="0 0 22 12" version="1.1" xmlns="http://www.w3.org/2000/svg" xmlns:xlink="http://www.w3.org/1999/xlink">
    <!-- Generator: Sketch 60.1 (88133) - https://sketch.com -->
    <title>Ps 2</title>
    <desc>Created with Sketch.</desc>
    <g id="首页" stroke="none" stroke-width="1" fill="none" fill-rule="evenodd">
        <g transform="translate(-1484.000000, -332.000000)" fill="#333333" fill-rule="nonzero" id="banner">
            <g transform="translate(0.000000, 50.000000)">
                <g id="Ps-2" transform="translate(1484.000000, 282.000000)">
                    <path d="M5.45898437,11.5820312 C5.84309896,11.5820312 6.10351562,11.5299479 6.24023438,11.4257812 C6.37695312,11.3216146 6.4453125,11.1393229 6.4453125,10.8789062 C6.4453125,10.6445312 6.37369792,10.4736328 6.23046875,10.3662109 C6.08723958,10.2587891 5.85611979,10.2050781 5.53710938,10.2050781 L5.53710938,10.2050781 L3.49609375,10.2050781 L3.49609375,7.2265625 L5.20507813,7.2265625 C6.80013021,7.2265625 8.00455729,6.92382812 8.81835938,6.31835938 C9.63216146,5.71289062 10.0390625,4.81445312 10.0390625,3.62304688 C10.0390625,2.43164062 9.62890625,1.52994792 8.80859375,0.91796875 C7.98828125,0.305989583 6.78710938,0 5.20507813,0 L5.20507813,0 L0.68359375,0 C0.462239583,0 0.29296875,0.0602213542 0.17578125,0.180664062 C0.05859375,0.301106771 0,0.475260417 0,0.703125 C0,0.970052083 0.0699869792,1.15397135 0.209960937,1.25488281 C0.349934896,1.35579427 0.706380208,1.40625 1.27929688,1.40625 L1.27929688,1.40625 L1.96289062,1.40625 L1.96289062,10.2050781 L0.703125,10.2050781 C0.462239583,10.2050781 0.284830729,10.2604167 0.170898437,10.3710938 C0.0569661458,10.4817708 0,10.6510417 0,10.8789062 C0,11.1067708 0.05859375,11.2809245 0.17578125,11.4013672 C0.29296875,11.5218099 0.462239583,11.5820312 0.68359375,11.5820312 L0.68359375,11.5820312 L5.45898437,11.5820312 Z M5.32226562,5.9375 L3.49609375,5.9375 L3.49609375,1.40625 L5.32226562,1.40625 C6.33789062,1.40625 7.10123698,1.59505208 7.61230469,1.97265625 C8.1233724,2.35026042 8.37890625,2.91341146 8.37890625,3.66210938 C8.37890625,4.42382812 8.125,4.99348958 7.6171875,5.37109375 C7.109375,5.74869792 6.34440104,5.9375 5.32226562,5.9375 L5.32226562,5.9375 Z M17.5390625,11.8066406 C18.7109375,11.8066406 19.6419271,11.5429688 20.3320312,11.015625 C21.0221354,10.4882812 21.3671875,9.78515625 21.3671875,8.90625 C21.3671875,7.98828125 21.0546875,7.30957031 20.4296875,6.87011719 C19.8046875,6.43066406 18.8151042,6.19466146 17.4609375,6.16210938 C16.1914062,6.13606771 15.3645833,6.03515625 14.9804688,5.859375 C14.5963542,5.68359375 14.4042969,5.390625 14.4042969,4.98046875 C14.4042969,4.56380208 14.5914714,4.2203776 14.9658203,3.95019531 C15.3401693,3.68001302 15.8333333,3.54492188 16.4453125,3.54492188 C16.9726562,3.54492188 17.4316406,3.61490885 17.8222656,3.75488281 C18.2128906,3.89485677 18.5807292,4.12434896 18.9257812,4.44335938 C19.0559896,4.56054688 19.2220052,4.73307292 19.4238281,4.9609375 C19.7102865,5.29296875 19.9511719,5.45898438 20.1464844,5.45898438 C20.374349,5.45898438 20.5403646,5.38248698 20.6445312,5.22949219 C20.7486979,5.0764974 20.8007812,4.82747396 20.8007812,4.48242188 L20.8007812,4.48242188 L20.8007812,3.33984375 C20.8007812,3.01432292 20.7470703,2.77018229 20.6396484,2.60742188 C20.5322266,2.44466146 20.3678385,2.36328125 20.1464844,2.36328125 C19.9511719,2.36328125 19.7526042,2.42675781 19.5507812,2.55371094 C19.3489583,2.68066406 19.2122396,2.74414062 19.140625,2.74414062 C19.1145833,2.74414062 18.8411458,2.67415365 18.3203125,2.53417969 C17.7994792,2.39420573 17.2884115,2.32421875 16.7871094,2.32421875 C15.5566406,2.32421875 14.601237,2.56184896 13.9208984,3.03710938 C13.2405599,3.51236979 12.9003906,4.1796875 12.9003906,5.0390625 C12.9003906,5.91796875 13.2486979,6.58854167 13.9453125,7.05078125 C14.6419271,7.51302083 15.6542969,7.74414062 16.9824219,7.74414062 L16.9824219,7.74414062 L17.5195312,7.74414062 C18.3333333,7.74414062 18.9078776,7.84179687 19.2431641,8.03710938 C19.5784505,8.23242188 19.7460938,8.56119792 19.7460938,9.0234375 C19.7460938,9.47916667 19.5377604,9.84700521 19.1210938,10.1269531 C18.7044271,10.406901 18.1510417,10.546875 17.4609375,10.546875 C16.8164062,10.546875 16.2272135,10.4410807 15.6933594,10.2294922 C15.1595052,10.0179036 14.7558594,9.73632812 14.4824219,9.38476562 C14.3977865,9.27408854 14.3033854,9.10807292 14.1992188,8.88671875 C14.0429688,8.52213542 13.8313802,8.33984375 13.5644531,8.33984375 C13.3235677,8.33984375 13.1494141,8.40169271 13.0419922,8.52539062 C12.9345703,8.64908854 12.8808594,8.85416667 12.8808594,9.140625 L12.8808594,9.140625 L12.8808594,10.8789062 C12.8808594,11.1783854 12.9410807,11.4078776 13.0615234,11.5673828 C13.1819661,11.726888 13.3561198,11.8066406 13.5839844,11.8066406 C13.6946615,11.8066406 13.8313802,11.7692057 13.9941406,11.6943359 C14.156901,11.6194661 14.3522135,11.5071615 14.5800781,11.3574219 C15.2701823,11.5201823 15.843099,11.6357422 16.2988281,11.7041016 C16.7545573,11.7724609 17.1679688,11.8066406 17.5390625,11.8066406 Z" id="Ps"></path>
                </g>
            </g>
        </g>
    </g>
</svg>