<?xml version="1.0" encoding="UTF-8"?>
<svg width="70px" height="14px" viewBox="0 0 70 14" version="1.1" xmlns="http://www.w3.org/2000/svg" xmlns:xlink="http://www.w3.org/1999/xlink">
    <!-- Generator: Sketch 60.1 (88133) - https://sketch.com -->
    <title>Sketch 2</title>
    <desc>Created with Sketch.</desc>
    <g id="首页" stroke="none" stroke-width="1" fill="none" fill-rule="evenodd">
        <g transform="translate(-1207.000000, -133.000000)" fill="#333333" fill-rule="nonzero" id="banner">
            <g transform="translate(0.000000, 50.000000)">
                <g id="Sketch-2" transform="translate(1207.000000, 83.000000)">
                    <path d="M0.966796875,13.2226562 C1.22070312,13.2226562 1.40625,13.1656901 1.5234375,13.0517578 C1.640625,12.9378255 1.71549479,12.734375 1.74804688,12.4414062 C2.26888021,12.6757812 2.76041667,12.8483073 3.22265625,12.9589844 C3.68489583,13.0696615 4.15039062,13.125 4.61914062,13.125 C5.97981771,13.125 7.06705729,12.7945964 7.88085938,12.1337891 C8.69466146,11.4729818 9.1015625,10.5957031 9.1015625,9.50195312 C9.1015625,8.57747396 8.81510417,7.84342448 8.2421875,7.29980469 C7.66927083,6.7561849 6.81640625,6.40950521 5.68359375,6.25976562 L5.68359375,6.25976562 L4.12109375,6.06445312 C3.36588542,5.96028646 2.80436198,5.76497396 2.43652344,5.47851562 C2.0686849,5.19205729 1.88476562,4.80143229 1.88476562,4.30664062 C1.88476562,3.67513021 2.13053385,3.1640625 2.62207031,2.7734375 C3.11360677,2.3828125 3.75325521,2.1875 4.54101562,2.1875 C5.05533854,2.1875 5.51432292,2.27539062 5.91796875,2.45117188 C6.32161458,2.62695312 6.63085938,2.87760417 6.84570312,3.203125 C6.93684896,3.33984375 7.02799479,3.54492188 7.11914062,3.81835938 C7.30794271,4.30013021 7.57486979,4.54101562 7.91992188,4.54101562 C8.15429688,4.54101562 8.33658854,4.47753906 8.46679688,4.35058594 C8.59700521,4.22363281 8.66210938,4.04622396 8.66210938,3.81835938 L8.66210938,3.81835938 L8.66210938,3.72070312 L8.52539062,1.6796875 C8.49934896,1.36067708 8.43098958,1.15885417 8.3203125,1.07421875 C8.20963542,0.989583333 8.01106771,0.947265625 7.72460938,0.947265625 C7.50325521,0.947265625 7.34700521,0.983072917 7.25585938,1.0546875 C7.16471354,1.12630208 7.11263021,1.25651042 7.09960938,1.4453125 C6.59830729,1.24348958 6.14908854,1.0953776 5.75195312,1.00097656 C5.35481771,0.906575521 4.97721354,0.859375 4.61914062,0.859375 C3.38867187,0.859375 2.36165365,1.19791667 1.53808594,1.875 C0.714518229,2.55208333 0.302734375,3.38867188 0.302734375,4.38476562 C0.302734375,5.32877604 0.611979167,6.06119792 1.23046875,6.58203125 C1.84895833,7.10286458 2.83203125,7.45768229 4.1796875,7.64648438 L4.1796875,7.64648438 L5.625,7.84179688 C6.24348958,7.93294271 6.71386719,8.13476562 7.03613281,8.44726562 C7.35839844,8.75976562 7.51953125,9.17317708 7.51953125,9.6875 C7.51953125,10.3059896 7.25748698,10.8138021 6.73339844,11.2109375 C6.2093099,11.6080729 5.52734375,11.8066406 4.6875,11.8066406 C4.00390625,11.8066406 3.41634115,11.6829427 2.92480469,11.4355469 C2.43326823,11.188151 2.07356771,10.8365885 1.84570312,10.3808594 C1.77408854,10.2376302 1.69921875,10.0260417 1.62109375,9.74609375 C1.45182292,9.18619792 1.171875,8.90625 0.78125,8.90625 C0.501302083,8.90625 0.301106771,8.97135417 0.180664062,9.1015625 C0.0602213542,9.23177083 0,9.453125 0,9.765625 L0,9.765625 L0,9.94140625 L0.126953125,12.2070312 C0.146484375,12.5651042 0.222981771,12.8238932 0.356445312,12.9833984 C0.489908854,13.1429036 0.693359375,13.2226562 0.966796875,13.2226562 Z M14.2480469,12.7832031 C14.4173177,12.7832031 14.5556641,12.7050781 14.6630859,12.5488281 C14.7705078,12.3925781 14.8242188,12.1842448 14.8242188,11.9238281 L14.8242188,11.9238281 L14.8242188,9.04296875 L15.703125,8.2421875 L18.6035156,11.40625 C18.3496094,11.484375 18.1591797,11.5869141 18.0322266,11.7138672 C17.9052734,11.8408203 17.8417969,11.9921875 17.8417969,12.1679688 C17.8417969,12.3828125 17.906901,12.5390625 18.0371094,12.6367188 C18.1673177,12.734375 18.375651,12.7832031 18.6621094,12.7832031 L18.6621094,12.7832031 L21.3085938,12.7832031 C21.5625,12.7832031 21.7561849,12.7229818 21.8896484,12.6025391 C22.023112,12.4820964 22.0898438,12.3079427 22.0898438,12.0800781 C22.0898438,11.8391927 22.0296224,11.6666667 21.9091797,11.5625 C21.788737,11.4583333 21.5885417,11.40625 21.3085938,11.40625 L21.3085938,11.40625 L20.46875,11.40625 L16.7675781,7.3828125 L18.1835938,6.14257812 C18.5091146,5.85611979 18.8313802,5.6266276 19.1503906,5.45410156 C19.469401,5.28157552 19.7623698,5.17903646 20.0292969,5.14648438 C20.1009115,5.13346354 20.1985677,5.12044271 20.3222656,5.10742188 C20.953776,5.04231771 21.2695312,4.81445312 21.2695312,4.42382812 C21.2695312,4.20247396 21.2044271,4.03645833 21.0742188,3.92578125 C20.9440104,3.81510417 20.7552083,3.75976562 20.5078125,3.75976562 L20.5078125,3.75976562 L17.8613281,3.75976562 C17.5878906,3.75976562 17.3795573,3.80859375 17.2363281,3.90625 C17.093099,4.00390625 17.0214844,4.15039062 17.0214844,4.34570312 C17.0214844,4.49544271 17.0719401,4.62565104 17.1728516,4.73632812 C17.273763,4.84700521 17.4316406,4.94791667 17.6464844,5.0390625 L17.6464844,5.0390625 L14.8242188,7.40234375 L14.8242188,0.400390625 C14.8242188,0.276692708 14.7753906,0.179036458 14.6777344,0.107421875 C14.5800781,0.0358072917 14.4433594,0 14.2675781,0 L14.2675781,0 L12.4023438,0 C12.1484375,0 11.9547526,0.05859375 11.8212891,0.17578125 C11.6878255,0.29296875 11.6210938,0.46875 11.6210938,0.703125 C11.6210938,0.970052083 11.702474,1.15397135 11.8652344,1.25488281 C12.0279948,1.35579427 12.3893229,1.40625 12.9492188,1.40625 L12.9492188,1.40625 L13.3496094,1.40625 L13.3496094,11.40625 L12.8808594,11.40625 C12.3795573,11.40625 12.0524089,11.4534505 11.8994141,11.5478516 C11.7464193,11.6422526 11.6699219,11.8196615 11.6699219,12.0800781 C11.6699219,12.3144531 11.735026,12.4902344 11.8652344,12.6074219 C11.9954427,12.7246094 12.1875,12.7832031 12.4414062,12.7832031 L12.4414062,12.7832031 L14.2480469,12.7832031 Z M28.5058594,13.0273438 C29.1894531,13.0273438 29.8779297,12.9427083 30.5712891,12.7734375 C31.2646484,12.6041667 31.936849,12.360026 32.5878906,12.0410156 C32.8873698,11.891276 33.1054688,11.7382812 33.2421875,11.5820312 C33.3789062,11.4257812 33.4472656,11.2532552 33.4472656,11.0644531 C33.4472656,10.8821615 33.3821615,10.7291667 33.2519531,10.6054688 C33.1217448,10.4817708 32.9589844,10.4199219 32.7636719,10.4199219 C32.5748698,10.4199219 32.03125,10.6233724 31.1328125,11.0302734 C30.234375,11.4371745 29.4042969,11.640625 28.6425781,11.640625 C27.6334635,11.640625 26.8375651,11.3850911 26.2548828,10.8740234 C25.6722005,10.3629557 25.3548177,9.63867188 25.3027344,8.70117188 L25.3027344,8.70117188 L32.0117188,8.70117188 C32.6888021,8.70117188 33.1038411,8.63932292 33.2568359,8.515625 C33.4098307,8.39192708 33.4863281,8.14778646 33.4863281,7.78320312 C33.4863281,6.59830729 33.0338542,5.58919271 32.1289062,4.75585938 C31.2239583,3.92252604 30.0846354,3.50585938 28.7109375,3.50585938 C27.1940104,3.50585938 25.9635417,3.95182292 25.0195312,4.84375 C24.0755208,5.73567708 23.6035156,6.90104167 23.6035156,8.33984375 C23.6035156,9.75260417 24.0494792,10.8870443 24.9414062,11.7431641 C25.8333333,12.5992839 27.0214844,13.0273438 28.5058594,13.0273438 Z M31.7089844,7.421875 L25.3515625,7.421875 C25.5403646,6.61458333 25.9309896,5.98307292 26.5234375,5.52734375 C27.1158854,5.07161458 27.8450521,4.84375 28.7109375,4.84375 C29.5117188,4.84375 30.1871745,5.0797526 30.7373047,5.55175781 C31.2874349,6.02376302 31.6113281,6.64713542 31.7089844,7.421875 L31.7089844,7.421875 Z M41.3476562,12.9589844 C41.796875,12.9589844 42.2770182,12.9003906 42.7880859,12.7832031 C43.2991536,12.6660156 43.8736979,12.4804688 44.5117188,12.2265625 C44.8958333,12.0768229 45.1676432,11.9222005 45.3271484,11.7626953 C45.4866536,11.6031901 45.5664062,11.4160156 45.5664062,11.2011719 C45.5664062,11.0123698 45.5029297,10.8528646 45.3759766,10.7226562 C45.2490234,10.5924479 45.094401,10.5273438 44.9121094,10.5273438 C44.7167969,10.5273438 44.2057292,10.6998698 43.3789062,11.0449219 C42.5520833,11.389974 41.8424479,11.5625 41.25,11.5625 C40.5794271,11.5625 40.1057943,11.3932292 39.8291016,11.0546875 C39.5524089,10.7161458 39.4140625,10.0130208 39.4140625,8.9453125 L39.4140625,8.9453125 L39.4140625,5.68359375 L43.3691406,5.68359375 C43.6425781,5.68359375 43.8476562,5.6266276 43.984375,5.51269531 C44.1210938,5.39876302 44.1894531,5.22786458 44.1894531,5 C44.1894531,4.75911458 44.1162109,4.58333333 43.9697266,4.47265625 C43.8232422,4.36197917 43.5904948,4.30664062 43.2714844,4.30664062 L43.2714844,4.30664062 L39.4140625,4.30664062 L39.4140625,2.32421875 C39.4140625,1.74479167 39.358724,1.37369792 39.2480469,1.2109375 C39.1373698,1.04817708 38.9388021,0.966796875 38.6523438,0.966796875 C38.3984375,0.966796875 38.211263,1.03352865 38.0908203,1.16699219 C37.9703776,1.30045573 37.9101562,1.50716146 37.9101562,1.78710938 L37.9101562,1.78710938 L37.9101562,4.30664062 L36.8066406,4.30664062 C36.2532552,4.30664062 35.8919271,4.35546875 35.7226562,4.453125 C35.5533854,4.55078125 35.46875,4.73307292 35.46875,5 C35.46875,5.24088542 35.530599,5.41503906 35.6542969,5.52246094 C35.7779948,5.62988281 35.9765625,5.68359375 36.25,5.68359375 L36.25,5.68359375 L37.9101562,5.68359375 L37.9101562,9.24804688 C37.9101562,9.89908854 37.9378255,10.3808594 37.9931641,10.6933594 C38.0485026,11.0058594 38.141276,11.2760417 38.2714844,11.5039062 C38.5253906,11.9856771 38.9111328,12.3486328 39.4287109,12.5927734 C39.9462891,12.8369141 40.5859375,12.9589844 41.3476562,12.9589844 Z M52.4902344,13.0273438 C53.5839844,13.0273438 54.617513,12.7587891 55.5908203,12.2216797 C56.5641276,11.6845703 57.0507812,11.1588542 57.0507812,10.6445312 C57.0507812,10.4427083 56.9873047,10.2783203 56.8603516,10.1513672 C56.7333984,10.0244141 56.5690104,9.9609375 56.3671875,9.9609375 C56.1263021,9.9609375 55.7942708,10.1334635 55.3710938,10.4785156 C55.1627604,10.641276 54.9967448,10.7617188 54.8730469,10.8398438 C54.5214844,11.0807292 54.148763,11.2613932 53.7548828,11.3818359 C53.3610026,11.5022786 52.9459635,11.5625 52.5097656,11.5625 C51.5527344,11.5625 50.7698568,11.2548828 50.1611328,10.6396484 C49.5524089,10.0244141 49.2480469,9.23177083 49.2480469,8.26171875 C49.2480469,7.31119792 49.5654297,6.53645833 50.2001953,5.9375 C50.8349609,5.33854167 51.6601562,5.0390625 52.6757812,5.0390625 C53.2552083,5.0390625 53.7679036,5.17415365 54.2138672,5.44433594 C54.6598307,5.71451823 55.0390625,6.11328125 55.3515625,6.640625 C55.5338542,6.95963542 55.6884766,7.16959635 55.8154297,7.27050781 C55.9423828,7.37141927 56.09375,7.421875 56.2695312,7.421875 C56.5169271,7.421875 56.702474,7.36165365 56.8261719,7.24121094 C56.9498698,7.12076823 57.0117188,6.94010417 57.0117188,6.69921875 L57.0117188,6.69921875 L57.0117188,4.8828125 C57.0117188,4.39453125 56.961263,4.07226562 56.8603516,3.91601562 C56.7594401,3.75976562 56.5755208,3.68164062 56.3085938,3.68164062 C56.0481771,3.68164062 55.8561198,3.73209635 55.7324219,3.83300781 C55.608724,3.93391927 55.546875,4.09179688 55.546875,4.30664062 L55.546875,4.30664062 L55.546875,4.34570312 C54.9869792,4.06575521 54.4580078,3.85904948 53.9599609,3.72558594 C53.4619141,3.5921224 52.9654948,3.52539062 52.4707031,3.52539062 C51.0644531,3.52539062 49.8925781,3.97949219 48.9550781,4.88769531 C48.0175781,5.79589844 47.5488281,6.92708333 47.5488281,8.28125 C47.5488281,9.63541667 48.0192057,10.764974 48.9599609,11.6699219 C49.9007161,12.5748698 51.077474,13.0273438 52.4902344,13.0273438 Z M62.96875,12.7832031 C63.2747396,12.7832031 63.4814453,12.7327474 63.5888672,12.6318359 C63.6962891,12.5309245 63.75,12.3470052 63.75,12.0800781 C63.75,11.8261719 63.6816406,11.6503906 63.5449219,11.5527344 C63.4082031,11.4550781 63.1445312,11.40625 62.7539062,11.40625 L62.7539062,11.40625 L62.4121094,11.40625 L62.4121094,7.34375 C62.4121094,6.6796875 62.664388,6.12304688 63.1689453,5.67382812 C63.6735026,5.22460938 64.2610677,5 64.9316406,5 C65.5891927,5 66.0904948,5.20019531 66.4355469,5.60058594 C66.780599,6.00097656 66.953125,6.58203125 66.953125,7.34375 L66.953125,7.34375 L66.953125,11.40625 L66.6113281,11.40625 C66.2402344,11.40625 65.9879557,11.4534505 65.8544922,11.5478516 C65.7210286,11.6422526 65.6542969,11.8196615 65.6542969,12.0800781 C65.6542969,12.3470052 65.7080078,12.5309245 65.8154297,12.6318359 C65.9228516,12.7327474 66.1295573,12.7832031 66.4355469,12.7832031 L66.4355469,12.7832031 L69.0332031,12.7832031 C69.2936198,12.7832031 69.4889323,12.7246094 69.6191406,12.6074219 C69.749349,12.4902344 69.8144531,12.3144531 69.8144531,12.0800781 C69.8144531,11.8457031 69.7428385,11.6748047 69.5996094,11.5673828 C69.4563802,11.4599609 69.2220052,11.40625 68.8964844,11.40625 L68.8964844,11.40625 L68.4375,11.40625 L68.4375,6.98242187 C68.4375,5.90169271 68.1559245,5.05533854 67.5927734,4.44335938 C67.0296224,3.83138021 66.2565104,3.52539062 65.2734375,3.52539062 C64.7721354,3.52539062 64.288737,3.6311849 63.8232422,3.84277344 C63.3577474,4.05436198 62.8873698,4.38151042 62.4121094,4.82421875 L62.4121094,4.82421875 L62.4121094,0.400390625 C62.4121094,0.276692708 62.3632812,0.179036458 62.265625,0.107421875 C62.1679688,0.0358072917 62.03125,0 61.8554688,0 L61.8554688,0 L60.3710938,0 C60.1171875,0 59.9235026,0.05859375 59.7900391,0.17578125 C59.6565755,0.29296875 59.5898438,0.46875 59.5898438,0.703125 C59.5898438,0.963541667 59.6728516,1.14583333 59.8388672,1.25 C60.0048828,1.35416667 60.3092448,1.40625 60.7519531,1.40625 L60.7519531,1.40625 L60.9375,1.40625 L60.9375,11.40625 L60.7324219,11.40625 C60.2897135,11.40625 59.991862,11.4534505 59.8388672,11.5478516 C59.6858724,11.6422526 59.609375,11.8196615 59.609375,12.0800781 C59.609375,12.3144531 59.6728516,12.4902344 59.7998047,12.6074219 C59.9267578,12.7246094 60.1171875,12.7832031 60.3710938,12.7832031 L60.3710938,12.7832031 L62.96875,12.7832031 Z" id="Sketch"></path>
                </g>
            </g>
        </g>
    </g>
</svg>