<?xml version="1.0" encoding="UTF-8"?>
<svg width="35px" height="12px" viewBox="0 0 35 12" version="1.1" xmlns="http://www.w3.org/2000/svg" xmlns:xlink="http://www.w3.org/1999/xlink">
    <!-- Generator: Sketch 60.1 (88133) - https://sketch.com -->
    <title>Vue 2</title>
    <desc>Created with Sketch.</desc>
    <g id="首页" stroke="none" stroke-width="1" fill="none" fill-rule="evenodd">
        <g transform="translate(-1161.000000, -231.000000)" fill="#333333" fill-rule="nonzero" id="banner">
            <g transform="translate(0.000000, 50.000000)">
                <g id="Vue-2" transform="translate(1161.000000, 181.000000)">
                    <path d="M6.24023438,11.6992188 C6.42252604,11.6992188 6.57226562,11.6389974 6.68945312,11.5185547 C6.80664062,11.398112 6.96614583,11.09375 7.16796875,10.6054688 L7.16796875,10.6054688 L10.6835938,1.40625 L10.8007812,1.40625 C11.1393229,1.40625 11.3769531,1.35253906 11.5136719,1.24511719 C11.6503906,1.13769531 11.71875,0.95703125 11.71875,0.703125 C11.71875,0.475260417 11.6617839,0.301106771 11.5478516,0.180664062 C11.4339193,0.0602213542 11.266276,0 11.0449219,0 L11.0449219,0 L7.97851562,0 C7.60091146,0 7.34375,0.0520833333 7.20703125,0.15625 C7.0703125,0.260416667 7.00195312,0.442708333 7.00195312,0.703125 C7.00195312,0.944010417 7.07519531,1.12141927 7.22167969,1.23535156 C7.36816406,1.34928385 7.59440104,1.40625 7.90039062,1.40625 L7.90039062,1.40625 L9.19921875,1.40625 L5.96679688,9.921875 L2.64648438,1.40625 L3.72070312,1.40625 C4.03320312,1.40625 4.26106771,1.34928385 4.40429688,1.23535156 C4.54752604,1.12141927 4.61914062,0.944010417 4.61914062,0.703125 C4.61914062,0.442708333 4.55240885,0.260416667 4.41894531,0.15625 C4.28548177,0.0520833333 4.02669271,0 3.64257812,0 L3.64257812,0 L0.68359375,0 C0.462239583,0 0.29296875,0.0602213542 0.17578125,0.180664062 C0.05859375,0.301106771 0,0.475260417 0,0.703125 C0,0.95703125 0.068359375,1.13769531 0.205078125,1.24511719 C0.341796875,1.35253906 0.572916667,1.40625 0.8984375,1.40625 L0.8984375,1.40625 L1.02539062,1.40625 L4.61914062,10.6054688 L4.63867188,10.6640625 C4.90559896,11.3541667 5.25390625,11.6992188 5.68359375,11.6992188 L5.68359375,11.6992188 L6.24023438,11.6992188 Z M17.1484375,11.7773438 C17.6432292,11.7773438 18.1136068,11.6878255 18.5595703,11.5087891 C19.0055339,11.3297526 19.5410156,10.999349 20.1660156,10.5175781 L20.1660156,10.5175781 L20.1660156,11.1816406 C20.1660156,11.3053385 20.2148438,11.4029948 20.3125,11.4746094 C20.4101562,11.546224 20.546875,11.5820312 20.7226562,11.5820312 L20.7226562,11.5820312 L22.2070312,11.5820312 C22.4609375,11.5820312 22.6546224,11.5234375 22.7880859,11.40625 C22.9215495,11.2890625 22.9882812,11.1132812 22.9882812,10.8789062 C22.9882812,10.6380208 22.9182943,10.4654948 22.7783203,10.3613281 C22.6383464,10.2571615 22.4088542,10.2050781 22.0898438,10.2050781 L22.0898438,10.2050781 L21.640625,10.2050781 L21.640625,3.50585938 C21.640625,3.08919271 21.5901693,2.82714844 21.4892578,2.71972656 C21.3883464,2.61230469 21.2141927,2.55859375 20.9667969,2.55859375 L20.9667969,2.55859375 L18.8867188,2.55859375 C18.6132812,2.55859375 18.4147135,2.6171875 18.2910156,2.734375 C18.1673177,2.8515625 18.1054688,3.03385417 18.1054688,3.28125 C18.1054688,3.50911458 18.1624349,3.67675781 18.2763672,3.78417969 C18.3902995,3.89160156 18.5742188,3.9453125 18.828125,3.9453125 L18.828125,3.9453125 L20.1660156,3.9453125 L20.1660156,7.97851562 C20.1660156,8.65559896 19.913737,9.21875 19.4091797,9.66796875 C18.9046224,10.1171875 18.297526,10.3417969 17.5878906,10.3417969 C16.8391927,10.3417969 16.2923177,10.1529948 15.9472656,9.77539062 C15.6022135,9.39778646 15.4296875,8.79882812 15.4296875,7.97851562 L15.4296875,7.97851562 L15.4296875,3.30078125 C15.4296875,2.98828125 15.3857422,2.78645833 15.2978516,2.6953125 C15.2099609,2.60416667 15.0520833,2.55859375 14.8242188,2.55859375 L14.8242188,2.55859375 L13.3496094,2.55859375 C13.0826823,2.55859375 12.8857422,2.6155599 12.7587891,2.72949219 C12.6318359,2.84342448 12.5683594,3.01432292 12.5683594,3.2421875 C12.5683594,3.50260417 12.6497396,3.68489583 12.8125,3.7890625 C12.9752604,3.89322917 13.2779948,3.9453125 13.7207031,3.9453125 L13.7207031,3.9453125 L13.9257812,3.9453125 L13.9257812,8.33984375 C13.9257812,9.4921875 14.1943359,10.3531901 14.7314453,10.9228516 C15.2685547,11.492513 16.0742188,11.7773438 17.1484375,11.7773438 Z M29.765625,11.8261719 C30.4492188,11.8261719 31.1376953,11.7415365 31.8310547,11.5722656 C32.5244141,11.4029948 33.1966146,11.1588542 33.8476562,10.8398438 C34.1471354,10.6901042 34.3652344,10.5371094 34.5019531,10.3808594 C34.6386719,10.2246094 34.7070312,10.0520833 34.7070312,9.86328125 C34.7070312,9.68098958 34.6419271,9.52799479 34.5117188,9.40429688 C34.3815104,9.28059896 34.21875,9.21875 34.0234375,9.21875 C33.8346354,9.21875 33.2910156,9.42220052 32.3925781,9.82910156 C31.4941406,10.2360026 30.6640625,10.4394531 29.9023438,10.4394531 C28.8932292,10.4394531 28.0973307,10.1839193 27.5146484,9.67285156 C26.9319661,9.16178385 26.6145833,8.4375 26.5625,7.5 L26.5625,7.5 L33.2714844,7.5 C33.9485677,7.5 34.3636068,7.43815104 34.5166016,7.31445312 C34.6695964,7.19075521 34.7460938,6.94661458 34.7460938,6.58203125 C34.7460938,5.39713542 34.2936198,4.38802083 33.3886719,3.5546875 C32.483724,2.72135417 31.344401,2.3046875 29.9707031,2.3046875 C28.453776,2.3046875 27.2233073,2.75065104 26.2792969,3.64257812 C25.3352865,4.53450521 24.8632812,5.69986979 24.8632812,7.13867188 C24.8632812,8.55143229 25.3092448,9.6858724 26.2011719,10.5419922 C27.093099,11.398112 28.28125,11.8261719 29.765625,11.8261719 Z M32.96875,6.22070312 L26.6113281,6.22070312 C26.8001302,5.41341146 27.1907552,4.78190104 27.7832031,4.32617188 C28.375651,3.87044271 29.1048177,3.64257812 29.9707031,3.64257812 C30.7714844,3.64257812 31.4469401,3.87858073 31.9970703,4.35058594 C32.5472005,4.82259115 32.8710938,5.44596354 32.96875,6.22070312 L32.96875,6.22070312 Z" id="Vue"></path>
                </g>
            </g>
        </g>
    </g>
</svg>