<?xml version="1.0" encoding="UTF-8"?>
<svg width="15px" height="15px" viewBox="0 0 15 15" version="1.1" xmlns="http://www.w3.org/2000/svg" xmlns:xlink="http://www.w3.org/1999/xlink">
    <!-- Generator: Sketch 60.1 (88133) - https://sketch.com -->
    <title>矩形</title>
    <desc>Created with Sketch.</desc>
    <g id="首页" stroke="none" stroke-width="1" fill="none" fill-rule="evenodd">
        <g transform="translate(-696.000000, -992.000000)" fill-rule="nonzero" id="主项目">
            <g transform="translate(0.000000, 650.000000)">
                <g id="编组">
                    <g id="编组-4" transform="translate(539.000000, 205.000000)">
                        <g id="btn" transform="translate(98.000000, 134.000000)">
                            <g id="箭头" transform="translate(59.000000, 3.000000)">
                                <rect id="矩形" fill="#000000" opacity="0" x="0" y="0" width="14.4000006" height="14.4000006"></rect>
                                <path d="M10.0434244,7.73222431 L5.42102422,12.3544805 C5.1269762,12.6485285 4.65033618,12.6485285 4.35643217,12.3544805 C4.06252816,12.0605765 4.06252816,11.5837925 4.35643217,11.2898884 L8.44646434,7.20000029 L4.35657617,3.11011212 C4.06267216,2.81606411 4.06267216,2.33942409 4.35657617,2.04552008 C4.65048018,1.75147207 5.1271202,1.75147207 5.42116822,2.04552008 L10.0435684,6.66777626 C10.1904484,6.81480027 10.2638884,7.00732828 10.2638884,7.20000029 C10.2638884,7.39267229 10.1903044,7.5853443 10.0434244,7.73222431 Z" id="路径" fill="#0066CC"></path>
                            </g>
                        </g>
                    </g>
                </g>
            </g>
        </g>
    </g>
</svg>