<?xml version="1.0" encoding="UTF-8"?>
<svg width="20px" height="20px" viewBox="0 0 20 20" version="1.1" xmlns="http://www.w3.org/2000/svg" xmlns:xlink="http://www.w3.org/1999/xlink">
    <!-- Generator: Sketch 60.1 (88133) - https://sketch.com -->
    <title>矩形</title>
    <desc>Created with Sketch.</desc>
    <g id="首页" stroke="none" stroke-width="1" fill="none" fill-rule="evenodd">
        <g transform="translate(-950.000000, -600.000000)" fill-rule="nonzero" id="banner">
            <g transform="translate(0.000000, 50.000000)">
                <g id="arrow" transform="translate(892.000000, 520.000000)">
                    <g id="箭头" transform="translate(58.000000, 30.000000)">
                        <rect id="矩形" fill="#000000" opacity="0" x="0" y="0" width="19.612903" height="19.612903"></rect>
                        <path d="M9.83077409,16 C9.60423256,16 9.37185616,15.9325543 9.2149865,15.7693882 C6.22179767,12.6662446 3.22875313,9.56314236 0.238274824,6.45972769 C0.0697773736,6.2852115 -0.00718739211,6.09303855 0.00052636547,5.90414404 C0.0099297822,5.67387316 0.131697783,5.46043291 0.299459522,5.30163677 C0.469332867,5.14084186 0.693085607,5.03012682 0.928166531,5.0316287 C1.1220469,5.03286736 1.3164722,5.11824212 1.48877933,5.29709891 C2.55287171,6.4001162 3.61649708,7.50314009 4.6800285,8.60606655 C6.27928853,10.2645659 7.87833617,11.922845 9.47843974,13.5805502 C9.60261222,13.7091927 9.72678833,13.837829 9.85096788,13.9664595 C9.97692489,13.8395928 10.1028818,13.7127317 10.2288387,13.5858768 C11.3318638,12.4749882 12.4353647,11.3640996 13.5389618,10.2531142 C15.192027,8.58898198 16.845308,6.92463263 18.4974025,5.25986818 C18.6735228,5.0825178 18.8719906,4.99962061 19.0687239,5 C19.3072986,5.00046297 19.5339853,5.11237774 19.7052706,5.27475124 C19.8713932,5.43223073 19.9921159,5.64270628 19.9996648,5.86947807 C20.005846,6.05516536 19.9266108,6.24283522 19.7569141,6.41332975 C16.7447314,9.44829503 13.7312008,12.4817527 10.7176154,15.5152657 L10.4714709,15.7630396 C10.3077943,15.9271027 10.0659444,16 9.83077409,16 Z" id="路径" fill="#999999"></path>
                    </g>
                </g>
            </g>
        </g>
    </g>
</svg>