<?xml version="1.0" encoding="UTF-8"?>
<svg width="60px" height="60px" viewBox="0 0 60 60" version="1.1" xmlns="http://www.w3.org/2000/svg" xmlns:xlink="http://www.w3.org/1999/xlink">
    <!-- Generator: Sketch 60.1 (88133) - https://sketch.com -->
    <title>椭圆形</title>
    <desc>Created with Sketch.</desc>
    <g id="首页" stroke="none" stroke-width="1" fill="none" fill-rule="evenodd">
        <g transform="translate(-795.000000, -5226.000000)" id="最近在做备份">
            <g transform="translate(0.000000, 5037.000000)">
                <g id="编组-14" transform="translate(360.000000, 169.000000)">
                    <g id="编组-7备份-2" transform="translate(415.000000, 0.000000)">
                        <g id="编组" transform="translate(20.000000, 20.000000)">
                            <circle id="椭圆形" fill="#737CE9" cx="30" cy="30" r="30"></circle>
                            <g id="编组-13" transform="translate(11.040000, 11.040000)" fill-rule="nonzero">
                                <path d="M0.951989206,19.4463967 C0.951989206,25.7056899 4.38276971,31.4895153 9.95198921,34.619162 C15.5212085,37.7488086 22.3827699,37.7488086 27.9519892,34.619162 C33.5212087,31.4895153 36.9519892,25.7056899 36.9519892,19.4463967 C36.9519892,9.77036785 28.8931147,1.92639667 18.9519892,1.92639667 C9.01086371,1.92639667 0.951989206,9.77036785 0.951989206,19.4463967 L0.951989206,19.4463967 Z" id="路径" fill="#4E5398"></path>
                                <path d="M10.9470628,24.7115965 C15.5750486,31.1792369 24.5698308,32.6705717 31.0374712,28.0425859 C37.5051116,23.4146001 38.9964463,14.4198178 34.3684605,7.95217745 C29.7404747,1.48453705 20.7456925,-0.0067976632 14.2780521,4.62118813 C7.81041169,9.24917392 6.31907698,18.2439561 10.9470628,24.7115965 Z" id="路径" fill="#172268"></path>
                                <path d="M25.6719892,3.84639667 C24.6159892,3.65439667 27.2079892,6.96639667 19.4319892,10.0863967 C12.2319892,12.9663967 10.2159892,19.6863967 14.6319892,23.5263967 C18.4719892,26.8863967 23.7519892,26.4063967 26.6319892,21.6063967 C29.5119892,16.8063967 31.9119892,10.5663967 33.3519892,12.0063967 C32.8719892,8.64639667 28.0719892,4.32639667 25.6719892,3.84639667 Z" id="路径" fill="#646FBC"></path>
                                <path d="M23.0319892,0.438396667 C27.1119892,1.68639667 27.5919892,5.52639667 17.5119892,6.96639667 C7.43198921,8.40639667 -2.93601079,19.6863967 6.47198921,30.4863967 C16.0719892,41.5263967 26.6319892,31.4463967 29.0319892,25.2063967 C31.4799892,18.7743967 32.3919892,4.18239667 37.1919892,13.6863967 L37.1919892,13.7823967 C39.3039892,21.2703967 36.6639892,29.5743967 29.9919892,34.3743967 C21.4959892,40.4703967 9.63998921,38.5023967 3.54398921,30.0063967 C-2.55201079,21.5103967 -0.584010794,9.65439667 7.91198921,3.55839667 C12.4719892,0.294396667 17.9919892,-0.665603333 23.0319892,0.438396667" id="路径" fill="#DCDDE2"></path>
                            </g>
                        </g>
                    </g>
                </g>
            </g>
        </g>
    </g>
</svg>