<?xml version="1.0" encoding="UTF-8"?>
<svg width="24px" height="24px" viewBox="0 0 24 24" version="1.1" xmlns="http://www.w3.org/2000/svg" xmlns:xlink="http://www.w3.org/1999/xlink">
    <!-- Generator: Sketch 60.1 (88133) - https://sketch.com -->
    <title>矩形</title>
    <desc>Created with Sketch.</desc>
    <g id="首页" stroke="none" stroke-width="1" fill="none" fill-rule="evenodd">
        <g transform="translate(-1596.000000, -5130.000000)" fill-rule="nonzero" id="TopBtn">
            <g transform="translate(1580.000000, 5114.000000)">
                <g id="编组-11" transform="translate(16.000000, 16.000000)">
                    <g id="箭头">
                        <rect id="矩形" fill="#000000" opacity="0" x="0" y="0" width="24" height="24"></rect>
                        <path d="M18.6565781,10.296375 L12.6216094,4.26140625 C12.1502812,3.79007812 11.3862422,3.79007812 10.9149141,4.26140625 L4.87994531,10.296375 C4.40861719,10.7677031 4.40861719,11.5317422 4.87994531,12.0030703 C5.35127344,12.4743984 6.1153125,12.4743984 6.58664062,12.0030703 L10.5612891,8.02842187 L10.5612891,19.5986719 C10.5612891,20.2655391 11.1014297,20.8056797 11.7682969,20.8056797 C12.4351641,20.8056797 12.9753047,20.2655391 12.9753047,19.5986719 L12.9753047,8.02842187 L16.9499531,12.0030703 C17.1853125,12.2384531 17.4943125,12.3567188 17.8033125,12.3567188 C18.1123125,12.3567188 18.4212891,12.2390391 18.6566719,12.0030703 C19.128,11.5317422 19.128,10.7677031 18.6566719,10.296375 L18.6565781,10.296375 Z" id="路径" fill="#333333"></path>
                    </g>
                </g>
            </g>
        </g>
    </g>
</svg>